<svg xmlns="http://www.w3.org/2000/svg" xmlns:xlink="http://www.w3.org/1999/xlink" width="500" zoomAndPan="magnify" viewBox="0 0 375 374.999991" height="500" preserveAspectRatio="xMidYMid meet" version="1.0"><defs><g/><clipPath id="f7468442a4"><path d="M 0 222 L 375 222 L 375 314.4375 L 0 314.4375 Z M 0 222 " clip-rule="nonzero"/></clipPath></defs><path fill="#100f0d" d="M 331.058594 118.757812 C 331.15625 118.914062 331.183594 119.070312 331.152344 119.234375 C 330.910156 119.523438 330.457031 120.308594 329.785156 121.574219 C 329.109375 122.851562 328.699219 124.160156 328.574219 125.511719 C 328.488281 126.703125 328.71875 127.742188 329.296875 128.65625 C 330.378906 130.367188 332.332031 131.457031 335.152344 131.914062 C 335.421875 131.890625 335.519531 131.996094 335.472656 132.246094 C 335.417969 132.488281 335.308594 132.59375 335.144531 132.554688 C 334.082031 132.519531 333.179688 132.488281 332.429688 132.464844 C 330.753906 132.410156 329.214844 131.527344 328.316406 130.105469 L 327.652344 129.054688 C 327.207031 128.355469 326.941406 127.824219 326.851562 127.453125 C 326.484375 125.996094 326.703125 124.449219 327.5 122.816406 C 328.296875 121.179688 329.335938 119.820312 330.617188 118.71875 C 330.816406 118.59375 330.960938 118.609375 331.058594 118.757812 " fill-opacity="1" fill-rule="nonzero"/><path fill="#100f0d" d="M 331.039062 115.710938 C 332.046875 114.644531 333.414062 113.570312 335.121094 112.488281 C 336.527344 111.597656 337.621094 111.113281 338.421875 111.03125 C 340.167969 110.902344 341.300781 111.246094 341.8125 112.046875 C 342.320312 112.851562 342.480469 113.839844 342.3125 115.011719 C 342.132812 116.179688 342.023438 116.84375 341.992188 117.007812 L 341.214844 120.453125 L 341 123.136719 C 340.652344 122.796875 340.253906 122.273438 339.800781 121.570312 C 338.785156 119.957031 338.734375 118.4375 339.667969 117.003906 C 339.863281 116.878906 339.851562 116.746094 339.625 116.601562 C 339.398438 116.46875 339.261719 116.488281 339.226562 116.648438 C 337.625 118.792969 337.65625 121.167969 339.304688 123.785156 C 340.070312 124.992188 340.980469 126.109375 342.042969 127.117188 L 343.671875 129.691406 C 343.671875 129.691406 343.753906 130.273438 343.929688 131.429688 C 344.089844 132.589844 343.441406 133.566406 341.976562 134.355469 C 339.703125 135.660156 336.84375 135.917969 333.398438 135.144531 C 331 134.695312 328.898438 133.703125 327.078125 132.167969 C 326.277344 131.554688 325.644531 130.902344 325.199219 130.195312 C 323.863281 128.082031 323.953125 125.769531 325.457031 123.257812 C 327.152344 120.363281 329.003906 117.839844 331.039062 115.710938 Z M 327.84375 135.707031 C 331.328125 137.4375 334.632812 138.09375 337.746094 137.675781 C 339.554688 137.65625 341.300781 137.183594 342.972656 136.261719 C 343.058594 136.632812 342.96875 137.101562 342.714844 137.695312 C 342.453125 138.285156 342.285156 138.738281 342.21875 139.066406 C 342.136719 139.394531 342.136719 139.851562 342.226562 140.425781 C 342.3125 141.019531 342.289062 141.417969 342.152344 141.640625 C 341.941406 142.203125 341.636719 142.605469 341.230469 142.859375 C 340.328125 143.433594 339.082031 143.589844 337.511719 143.316406 C 335.9375 143.050781 334.609375 142.625 333.53125 142.03125 C 333.046875 141.78125 332.613281 141.5625 332.238281 141.363281 C 331.039062 140.75 330.0625 139.792969 329.410156 138.605469 C 329.011719 137.867188 328.488281 136.902344 327.84375 135.707031 Z M 347.847656 136.96875 L 344.890625 138.636719 L 345.230469 137.15625 C 345.371094 136.503906 345.226562 135.820312 344.78125 135.113281 C 344.980469 134.988281 345.167969 134.820312 345.34375 134.617188 C 345.816406 134.082031 346.066406 133.378906 346.171875 132.667969 L 346.292969 131.832031 C 347.101562 130.890625 347.671875 129.898438 347.996094 128.847656 L 350.269531 129.101562 C 350.753906 129.210938 351.035156 129.3125 351.101562 129.417969 C 351.164062 129.515625 351.15625 129.738281 351.082031 130.058594 L 350.917969 130.800781 L 350.050781 134.101562 L 350.039062 134.136719 C 349.796875 135.21875 349.128906 136.160156 348.191406 136.757812 Z M 350.566406 124.675781 C 350.101562 124.96875 349.578125 125.191406 349.042969 125.335938 L 348.765625 125.398438 C 348.898438 122.496094 348.144531 119.734375 346.488281 117.113281 C 345.855469 116.109375 345.101562 115.25 344.226562 114.539062 L 344.128906 114.382812 L 344.636719 113.761719 C 345.003906 113.300781 345.453125 112.910156 345.953125 112.59375 C 347.257812 111.765625 348.433594 111.515625 349.484375 111.835938 C 350.199219 112.085938 350.820312 112.613281 351.324219 113.410156 C 351.773438 114.117188 352.101562 115.039062 352.324219 116.164062 C 352.542969 117.292969 352.714844 118.175781 352.832031 118.800781 C 353.5625 121.300781 353.125 123.050781 351.519531 124.070312 Z M 343.359375 111.492188 C 342.789062 110.585938 341.996094 109.964844 341 109.605469 C 340.003906 109.253906 338.925781 109.15625 337.765625 109.328125 C 336.621094 109.449219 335.484375 109.746094 334.355469 110.230469 C 333.65625 110.527344 332.96875 110.894531 332.277344 111.332031 C 330.46875 112.476562 328.632812 114.136719 326.765625 116.304688 C 326.289062 116.890625 325.960938 117.375 325.796875 117.765625 C 324.746094 109.039062 337.628906 104.710938 341.164062 103.691406 C 341.175781 103.691406 341.183594 103.6875 341.191406 103.683594 C 341.28125 103.640625 341.398438 103.609375 341.511719 103.5625 C 341.695312 103.511719 341.867188 103.46875 342.035156 103.453125 C 342.042969 103.457031 342.050781 103.453125 342.050781 103.453125 C 342.320312 103.410156 342.578125 103.425781 342.828125 103.472656 C 343.238281 103.570312 343.667969 103.753906 344.128906 104.027344 C 344.285156 104.121094 344.433594 104.21875 344.566406 104.308594 C 344.679688 104.398438 344.804688 104.496094 344.964844 104.601562 C 345.082031 104.679688 345.179688 104.777344 345.261719 104.878906 C 345.285156 104.902344 345.300781 104.925781 345.316406 104.953125 C 345.457031 105.148438 345.539062 105.382812 345.582031 105.640625 C 345.59375 105.714844 345.605469 105.777344 345.609375 105.859375 C 345.757812 107.988281 343.359375 111.492188 343.359375 111.492188 Z M 293.792969 120.207031 C 291.746094 122.449219 290.585938 125.71875 291.507812 128.617188 C 285.402344 131.953125 279.851562 136.324219 275.179688 141.484375 L 263.347656 152.265625 C 262.8125 152.777344 262.265625 153.277344 261.710938 153.757812 L 261.695312 153.765625 C 260.574219 154.722656 259.40625 155.613281 258.171875 156.429688 C 257.046875 157.167969 255.695312 158.414062 256.34375 159.59375 C 256.894531 160.605469 258.382812 160.460938 259.445312 160.035156 C 262.363281 158.855469 264.722656 156.632812 266.992188 154.4375 C 273.566406 148.0625 280 141.546875 286.441406 135.03125 C 287.816406 140.710938 292.914062 145.289062 298.699219 146.046875 C 299.902344 146.195312 301.375 146.0625 301.933594 144.996094 C 302.234375 144.425781 302.175781 143.738281 302.074219 143.105469 C 301.054688 137.304688 295.3125 132.726562 289.4375 133.046875 C 294.117188 130.414062 299.230469 128.566406 304.503906 127.554688 C 305.261719 129.582031 307.554688 134.105469 313.460938 136.140625 C 319.933594 138.375 316.59375 129.121094 309.035156 126.898438 C 311.914062 126.609375 314.8125 126.566406 317.695312 126.785156 C 318.113281 128.871094 320.34375 129.925781 321.972656 131.28125 C 324.871094 133.710938 326.117188 137.574219 328.53125 140.488281 C 330.929688 143.371094 334.519531 145.234375 338.257812 145.535156 C 339.882812 145.664062 341.597656 145.488281 342.9375 144.570312 C 344.273438 143.652344 345.097656 141.84375 344.492188 140.339844 C 349.078125 140.621094 352.519531 135.832031 353.171875 131.28125 C 353.3125 130.273438 353.359375 129.191406 352.902344 128.28125 C 352.527344 127.53125 351.707031 126.953125 350.894531 126.980469 C 352.824219 126.441406 354.269531 124.59375 354.769531 122.613281 C 355.304688 120.472656 354.921875 118.199219 354.367188 116.054688 C 353.917969 114.292969 353.304688 112.496094 352.074219 111.15625 C 350.832031 109.816406 348.824219 109.050781 347.136719 109.742188 C 347.433594 108.195312 347.742188 106.617188 347.472656 105.066406 C 347.199219 103.515625 346.246094 101.980469 344.753906 101.5 C 343.507812 101.09375 342.144531 101.472656 340.894531 101.851562 C 334.734375 103.695312 327.949219 106.035156 324.953125 111.726562 C 323.710938 114.089844 323.277344 116.800781 322.296875 119.292969 C 321.324219 121.78125 319.542969 124.234375 316.929688 124.808594 C 315.875 125.039062 314.792969 124.933594 313.710938 124.867188 C 308.910156 124.554688 304.070312 124.941406 299.371094 125.996094 C 301.667969 123.382812 302.972656 119.929688 302.972656 116.457031 C 302.972656 116.121094 302.941406 115.734375 302.675781 115.523438 C 302.367188 115.269531 301.898438 115.386719 301.515625 115.53125 C 298.664062 116.585938 295.847656 117.964844 293.792969 120.207031 " fill-opacity="1" fill-rule="nonzero"/><path fill="#100f0d" d="M 66.917969 137.398438 C 66.992188 137.699219 67.164062 137.859375 67.441406 137.886719 C 74.777344 137.167969 80.894531 135.835938 85.652344 132.101562 C 86.113281 131.816406 86.71875 131.308594 87.4375 130.558594 C 88.953125 128.976562 90.117188 127.132812 90.871094 124.941406 C 92.0625 122.300781 92.976562 120.542969 93.683594 119.765625 C 95.976562 117.210938 99.582031 117.316406 103.902344 119.5 C 108.917969 124.746094 112.050781 129.011719 113.878906 131.660156 C 114.460938 132.5625 115.035156 133.472656 115.589844 134.398438 C 120.535156 142.5625 123.804688 150.546875 125.921875 157.773438 C 125.949219 157.863281 125.980469 157.945312 126.007812 158.03125 C 126.246094 158.726562 126.554688 159.246094 126.9375 159.609375 C 127.316406 159.96875 127.667969 160.085938 127.988281 159.980469 C 128.390625 159.851562 128.671875 159.460938 128.820312 158.808594 C 128.972656 158.152344 128.953125 157.371094 128.730469 156.429688 C 127.179688 150.960938 125.230469 145.855469 122.9375 141.148438 C 121.546875 138.402344 120.054688 135.71875 118.472656 133.109375 C 118.332031 132.867188 118.191406 132.628906 118.046875 132.390625 C 117.167969 131.09375 116.261719 129.816406 115.335938 128.558594 C 112.953125 125.066406 110.085938 121.601562 106.710938 118.3125 C 104.785156 114.382812 103.4375 110.320312 102.636719 105.90625 C 101.847656 101.5 101.773438 97.875 102.660156 95.121094 C 103.464844 92.128906 103.753906 89.117188 103.480469 86.09375 C 103.203125 83.050781 102.160156 79.585938 100.207031 75.726562 C 99.984375 75.242188 99.601562 74.925781 99.0625 74.765625 C 98.507812 74.605469 98.320312 74.820312 98.476562 75.378906 C 99.003906 77.429688 98.988281 79.105469 98.492188 80.4375 C 98.003906 81.789062 97.390625 82.984375 96.675781 84.070312 C 96.195312 84.800781 95.714844 85.53125 95.234375 86.261719 C 94.242188 87.769531 93.542969 89.21875 93.097656 90.589844 C 92.660156 91.96875 92.65625 93.542969 93.042969 95.316406 C 94.476562 101.722656 98.777344 108.019531 102.59375 114.464844 C 101.144531 113.402344 99.675781 112.046875 98.21875 110.945312 C 96.585938 109.707031 94.929688 108.554688 93.214844 107.496094 C 92.152344 106.828125 90.6875 106.226562 89.839844 105.269531 C 88.914062 104.207031 88.230469 102.90625 87.570312 101.769531 C 86.167969 99.355469 84.777344 96.9375 83.382812 94.507812 C 80.960938 90.25 78.394531 85.738281 78.425781 81.851562 C 78.460938 79.402344 79.589844 77.445312 80.917969 75.703125 C 82.230469 73.941406 83.757812 72.339844 84.539062 70.246094 C 85.300781 68.136719 85.246094 65.386719 83.324219 62.371094 C 83.085938 61.996094 82.742188 61.546875 82.261719 61.308594 C 81.46875 60.929688 81.082031 61.445312 80.929688 61.910156 C 79.707031 65.445312 76.902344 68.019531 73.058594 69.675781 C 71.109375 70.507812 68.855469 71.15625 67.488281 72.535156 C 66.054688 73.96875 65.691406 76.128906 66.367188 78.378906 C 67.152344 80.996094 69.199219 83.632812 71.285156 86.113281 C 73.953125 89.269531 76.800781 92.328125 79.613281 95.386719 C 81 96.902344 82.382812 98.40625 83.742188 99.9375 C 84.433594 100.722656 85.128906 101.503906 85.808594 102.308594 C 86.222656 102.785156 87 103.875 87.550781 104.175781 C 85.847656 103.257812 83.210938 101.988281 79.570312 100.640625 C 79.5 100.59375 79.429688 100.542969 79.359375 100.496094 C 77.515625 99.535156 76.214844 98.863281 75.480469 98.410156 C 73.425781 97.148438 71.59375 95.804688 69.984375 94.324219 C 68.371094 92.847656 66.171875 90.726562 63.207031 88.027344 C 60.851562 85.738281 58.703125 83.914062 56.84375 82.519531 C 54.988281 81.121094 52.917969 79.976562 50.65625 79.105469 C 42.691406 75.949219 33.082031 76.667969 23.871094 82.464844 C 23.6875 82.585938 23.675781 82.789062 23.828125 83.082031 C 23.996094 83.363281 24.25 83.53125 24.59375 83.554688 C 31.472656 82.179688 36.957031 82.261719 40.792969 83.003906 C 44.289062 83.679688 48.582031 85.378906 53.335938 88.253906 C 57.617188 90.835938 60.773438 92.816406 63.0625 93.996094 C 64.722656 94.890625 66.761719 95.742188 69.164062 96.628906 C 71.382812 97.539062 72.984375 98.351562 74.015625 98.960938 C 71.082031 98.144531 68.121094 97.550781 65.1875 97.257812 C 62.222656 96.960938 59.339844 97.316406 56.363281 97.019531 C 53.292969 96.710938 50.15625 96.242188 47.144531 96.535156 C 42.871094 96.941406 38.859375 98.367188 35.578125 100.628906 C 31.8125 103.214844 28.988281 106.734375 26.363281 110.375 C 24.367188 113.144531 22.457031 116.019531 20.359375 118.769531 C 20.140625 119.054688 19.917969 119.355469 19.859375 119.699219 C 19.792969 120.039062 19.992188 120.410156 20.308594 120.394531 C 20.496094 120.382812 20.667969 120.242188 20.828125 120.109375 C 24.464844 117.003906 28.410156 114.265625 32.148438 111.316406 C 35.71875 108.515625 39.066406 105.484375 42.984375 103.1875 C 45.753906 101.578125 48.800781 100.363281 52.054688 99.601562 C 55.230469 98.859375 58.734375 98.371094 62.234375 98.914062 C 63.695312 99.148438 65.148438 99.417969 66.605469 99.722656 C 66.085938 99.617188 65.152344 100.039062 64.699219 100.164062 C 64.011719 100.347656 63.332031 100.542969 62.671875 100.761719 C 61.257812 101.230469 59.882812 101.777344 58.558594 102.402344 C 55.730469 103.71875 53.101562 105.34375 50.671875 107.210938 C 45.992188 110.828125 43.066406 115.773438 41.425781 121.367188 C 41.101562 122.460938 40.679688 124.371094 40.117188 127.085938 C 40.011719 127.445312 40.09375 127.683594 40.363281 127.785156 C 40.636719 127.890625 40.820312 127.769531 40.933594 127.410156 C 41.691406 125.761719 42.328125 124.542969 42.839844 123.757812 C 42.9375 123.648438 43.035156 123.542969 43.136719 123.433594 C 44.554688 121.042969 46.078125 119.101562 47.722656 117.621094 C 49.28125 116.378906 51.15625 115.203125 53.371094 114.167969 C 54.722656 113.410156 56.097656 112.695312 57.492188 112.015625 C 59.78125 110.726562 61.871094 108.851562 63.753906 106.3125 C 63.957031 105.882812 64.433594 105.152344 65.183594 104.121094 C 65.929688 103.089844 66.6875 102.273438 67.4375 101.667969 C 68.183594 101.046875 69.164062 100.660156 70.355469 100.507812 C 75.078125 101.519531 77.960938 102.53125 79.0625 102.984375 C 81.652344 104.105469 84.210938 105.351562 86.722656 106.707031 C 81.402344 105.886719 76.0625 107.34375 70.996094 110.953125 C 67.835938 113.390625 65.539062 116.179688 63.984375 119.039062 C 63.539062 119.859375 63.011719 121.417969 62.359375 123.683594 C 61.703125 125.949219 61.082031 127.558594 60.507812 128.574219 C 60.082031 129.332031 59.53125 130.035156 58.875 130.652344 C 58.550781 130.953125 58.199219 131.226562 57.824219 131.480469 C 57.453125 131.738281 57.027344 131.945312 56.949219 132.40625 C 56.851562 132.945312 57.519531 133.023438 57.945312 132.867188 C 59.945312 132.167969 61.851562 131.359375 63.292969 129.914062 C 64.640625 128.550781 66.226562 126.570312 68.035156 123.9375 C 69.179688 122.109375 70.117188 120.742188 70.839844 119.855469 C 72.542969 117.4375 75.222656 114.789062 79.019531 112.238281 C 82.804688 109.402344 86.410156 108.09375 89.71875 108.308594 C 92.917969 110.371094 96.027344 112.625 99.023438 115.058594 C 99.46875 115.359375 99.988281 115.832031 100.585938 116.476562 C 97.886719 115.71875 95.015625 115.570312 92.632812 115.882812 C 90.203125 116.191406 88.085938 117.136719 86.429688 118.570312 C 85.902344 118.980469 85.234375 119.691406 84.421875 120.707031 C 83.675781 121.632812 82.675781 123.125 81.402344 125.148438 C 80.546875 126.679688 79.867188 127.722656 79.386719 128.308594 C 78.070312 130.152344 76.464844 131.585938 74.621094 132.742188 C 72.789062 133.894531 70.324219 135.203125 67.308594 136.867188 C 66.976562 136.921875 66.847656 137.101562 66.917969 137.398438 " fill-opacity="1" fill-rule="nonzero"/><g clip-path="url(#f7468442a4)"><path fill="#100f0d" d="M 374.996094 222.160156 L 374.996094 225.003906 L 374.089844 225.058594 C 374.03125 225.058594 368.128906 225.445312 358.035156 225.949219 C 343.484375 226.664062 329.648438 227.203125 315.753906 227.648438 C 312.804688 227.746094 309.65625 227.84375 306.320312 227.957031 C 303.425781 228.035156 300.378906 228.113281 297.25 228.191406 C 294.085938 228.285156 290.828125 228.34375 287.507812 228.421875 L 284.941406 228.480469 C 280.542969 228.578125 276.023438 228.675781 271.429688 228.769531 C 266.375 228.886719 261.222656 228.984375 255.992188 229.0625 C 254.71875 229.082031 253.425781 229.097656 252.132812 229.117188 C 252.714844 231.84375 253.078125 234.742188 253.234375 237.773438 C 253.292969 238.835938 253.3125 239.921875 253.3125 241.023438 C 253.3125 242.105469 253.292969 243.167969 253.253906 244.210938 C 253.253906 244.464844 253.234375 244.695312 253.234375 244.925781 C 253.234375 244.949219 253.234375 244.949219 253.234375 244.949219 C 253.058594 249.121094 252.617188 253.078125 251.902344 256.8125 C 251.285156 260.097656 250.457031 263.207031 249.433594 266.144531 C 247.890625 270.53125 246 274.609375 243.78125 278.339844 C 243.140625 279.441406 242.464844 280.503906 241.753906 281.550781 C 240.921875 282.785156 240.054688 283.984375 239.128906 285.125 C 239.089844 285.183594 239.050781 285.257812 238.992188 285.316406 C 234.671875 290.710938 229.636719 295.347656 224.019531 299.054688 C 218.460938 302.75 212.59375 305.761719 206.574219 308.023438 C 200.59375 310.265625 194.511719 311.910156 188.511719 312.914062 C 182.53125 313.902344 176.914062 314.402344 171.804688 314.402344 C 165.085938 314.402344 158.699219 313.917969 152.796875 313.007812 C 146.890625 312.101562 141.621094 310.863281 137.125 309.355469 C 132.570312 307.808594 128.886719 306.015625 126.222656 303.964844 C 123.210938 301.683594 121.6875 299.191406 121.6875 296.542969 C 121.6875 292.042969 121.84375 285.507812 122.132812 277.121094 C 122.441406 268.753906 122.921875 258.6875 123.597656 247.167969 L 123.714844 245.253906 L 137.859375 245.953125 L 137.609375 248.015625 C 137.394531 249.5625 137.28125 251.070312 137.203125 252.503906 C 137.144531 253.949219 137.105469 255.398438 137.105469 256.851562 C 137.105469 264.230469 138.109375 270.550781 140.058594 275.65625 C 141.96875 280.675781 144.75 284.8125 148.277344 287.945312 C 151.828125 291.074219 156.171875 293.394531 161.210938 294.839844 C 166.339844 296.292969 172.207031 297.027344 178.632812 297.027344 C 185.058594 297.027344 191.234375 296.121094 196.984375 294.34375 C 202.699219 292.582031 207.773438 289.894531 212.074219 286.378906 C 216.359375 282.882812 219.832031 278.476562 222.378906 273.273438 C 224.925781 268.078125 226.21875 261.992188 226.21875 255.128906 C 226.21875 250.800781 225.621094 246.78125 224.441406 243.1875 C 223.269531 239.589844 221.625 236.230469 219.558594 233.195312 C 218.675781 231.902344 217.710938 230.644531 216.667969 229.445312 C 211.902344 229.488281 207.113281 229.488281 202.289062 229.503906 L 187.492188 229.5625 L 177.550781 229.523438 C 169.214844 229.488281 160.917969 229.445312 152.699219 229.425781 C 151.445312 229.425781 150.226562 229.410156 148.992188 229.386719 C 138.746094 229.3125 128.710938 229.195312 118.96875 229.039062 C 110.765625 228.941406 102.777344 228.75 95.058594 228.578125 L 87.457031 228.421875 C 77.132812 228.230469 67.195312 227.878906 59.207031 227.628906 C 45.425781 227.203125 31.609375 226.664062 16.925781 225.949219 C 6.832031 225.445312 0.949219 225.058594 0.890625 225.058594 L 0.00390625 225.003906 L 0.00390625 222.160156 L 374.996094 222.160156 " fill-opacity="1" fill-rule="nonzero"/></g><path fill="#100f0d" d="M 374.089844 157.460938 C 374.03125 157.460938 368.128906 157.070312 358.035156 156.570312 C 343.640625 155.855469 329.824219 155.296875 315.753906 154.867188 C 308.171875 154.621094 298.097656 154.292969 287.507812 154.09375 L 284.996094 154.039062 C 275.660156 153.828125 266.007812 153.59375 255.992188 153.460938 C 244.105469 153.285156 233.359375 153.148438 222.167969 153.089844 C 216.261719 153.054688 210.296875 153.03125 204.316406 153.015625 L 187.492188 152.953125 C 185.195312 152.953125 182.917969 152.976562 180.640625 152.976562 L 180.023438 152.996094 C 174.542969 153.015625 169.082031 153.015625 163.640625 153.054688 C 162.269531 151.507812 161.015625 149.867188 159.875 148.164062 C 157.734375 144.976562 156.039062 141.421875 154.820312 137.632812 C 153.625 133.828125 153.007812 129.535156 153.007812 124.859375 C 153.007812 119.121094 154.066406 113.78125 156.171875 109.007812 C 158.257812 104.238281 161.1875 100.0625 164.875 96.601562 C 168.558594 93.125 172.996094 90.378906 178.074219 88.429688 C 183.167969 86.476562 188.726562 85.492188 194.632812 85.492188 C 200.574219 85.492188 206.035156 86.324219 210.878906 87.945312 C 215.644531 89.566406 219.773438 92.003906 223.148438 95.175781 C 226.507812 98.363281 229.152344 102.402344 231.023438 107.175781 C 232.894531 112.003906 233.859375 117.667969 233.859375 124.046875 C 233.859375 126.210938 233.765625 128.488281 233.554688 130.847656 L 233.398438 132.839844 L 247.464844 133.535156 L 247.582031 131.621094 C 247.832031 126.710938 248.082031 122.054688 248.273438 117.648438 C 248.464844 113.222656 248.621094 109.148438 248.738281 105.417969 C 248.835938 101.6875 248.914062 98.363281 248.988281 95.425781 C 249.046875 92.488281 249.085938 90.050781 249.085938 88.082031 C 249.085938 85.800781 248.21875 83.636719 246.5 81.667969 C 244.957031 79.90625 242.894531 78.285156 240.363281 76.832031 C 237.933594 75.441406 235.097656 74.1875 231.933594 73.105469 C 228.824219 72.042969 225.523438 71.132812 222.109375 70.378906 C 218.691406 69.625 215.238281 69.066406 211.839844 68.675781 C 208.449219 68.3125 205.1875 68.117188 202.175781 68.117188 C 195.613281 68.117188 189.128906 68.875 182.878906 70.339844 C 176.605469 71.808594 170.644531 73.992188 165.125 76.855469 C 159.605469 79.695312 154.472656 83.230469 149.84375 87.347656 C 145.210938 91.480469 141.160156 96.238281 137.820312 101.511719 C 134.5 106.769531 131.859375 112.625 130.003906 118.925781 C 128.152344 125.207031 127.207031 132.085938 127.207031 139.371094 C 127.207031 144.355469 127.746094 149.054688 128.769531 153.324219 C 125.394531 153.363281 122.132812 153.421875 118.96875 153.480469 C 110.746094 153.574219 102.71875 153.75 94.980469 153.921875 L 87.457031 154.09375 C 77.265625 154.292969 67.675781 154.597656 59.207031 154.890625 C 45.292969 155.296875 31.457031 155.855469 16.925781 156.570312 C 6.832031 157.070312 0.949219 157.460938 0.890625 157.460938 L 0.00390625 157.515625 L 0.00390625 160.355469 L 374.996094 160.355469 L 374.996094 157.515625 L 374.089844 157.460938 " fill-opacity="1" fill-rule="nonzero"/><path fill="#100f0d" d="M 69.53125 278.003906 C 71.410156 283.066406 73.433594 287.632812 75.484375 291.71875 C 76.355469 291.007812 77.347656 290.730469 78.226562 291.003906 C 80.035156 291.585938 80.609375 294 79.707031 296.507812 C 78.792969 299.015625 76.875 300.980469 75.21875 300.796875 C 73.570312 300.617188 72.65625 298.039062 73.417969 295.136719 C 73.59375 294.472656 73.851562 293.867188 74.160156 293.332031 C 72.222656 289.597656 70.296875 285.460938 68.480469 280.902344 C 67.082031 284.984375 65.980469 289.195312 65.199219 293.503906 C 66.511719 294.414062 67.09375 296.914062 66.710938 299.714844 C 66.257812 302.929688 64.832031 305.589844 63.261719 305.5625 C 61.691406 305.546875 60.398438 302.550781 60.671875 298.945312 C 60.90625 295.824219 62.332031 293.492188 63.851562 293.210938 C 65.257812 284.910156 67.835938 276.945312 71.433594 269.527344 C 66.445312 271.882812 61.785156 275.058594 57.65625 278.984375 C 57.597656 279.582031 57.515625 280.203125 57.378906 280.824219 C 56.542969 284.519531 54.683594 287.222656 52.925781 286.789062 C 51.167969 286.355469 50.0625 282.613281 50.796875 278.507812 C 51.527344 274.402344 53.902344 271.816406 55.75 272.671875 C 56.765625 273.117188 57.386719 274.449219 57.621094 276.113281 C 62.234375 271.992188 67.4375 268.753906 72.984375 266.484375 C 75.390625 261.980469 78.179688 257.695312 81.320312 253.683594 C 77.222656 253.625 73.15625 253.96875 69.175781 254.714844 C 69.023438 255.0625 68.863281 255.40625 68.671875 255.746094 C 66.851562 258.957031 64.070312 260.734375 62.1875 259.570312 C 60.308594 258.417969 60.054688 254.414062 61.90625 250.765625 C 63.757812 247.121094 66.988281 245.574219 68.820312 247.167969 C 69.957031 248.132812 70.316406 249.960938 70.007812 251.941406 C 74.355469 251.265625 78.785156 251.058594 83.242188 251.3125 C 92.945312 239.761719 105.652344 230.644531 120.460938 225.234375 C 120.742188 226.019531 121.019531 226.804688 121.300781 227.589844 C 110.632812 231.34375 101.042969 237.074219 92.890625 244.296875 C 92.449219 247.832031 92.171875 251.246094 92.023438 254.535156 C 93.023438 254.632812 93.953125 255.066406 94.652344 255.820312 C 96.410156 257.761719 96.105469 260.757812 94.128906 262.671875 C 92.144531 264.589844 89.15625 265.058594 87.304688 263.546875 C 85.453125 262.042969 85.480469 258.785156 87.566406 256.429688 C 88.230469 255.691406 89.023438 255.167969 89.851562 254.851562 C 89.9375 252.1875 90.105469 249.441406 90.375 246.613281 C 86.695312 250.140625 83.34375 253.988281 80.351562 258.09375 C 80.640625 263.675781 81.25 268.867188 82.070312 273.652344 C 82.992188 273.433594 83.917969 273.546875 84.683594 274.03125 C 86.5625 275.257812 86.792969 277.949219 85.367188 280.183594 C 83.933594 282.414062 81.410156 283.691406 79.5625 282.898438 C 77.714844 282.109375 77.1875 279.210938 78.589844 276.542969 C 79.023438 275.730469 79.601562 275.070312 80.234375 274.570312 C 79.445312 270.3125 78.820312 265.730469 78.433594 260.839844 C 74.847656 266.1875 71.855469 271.941406 69.53125 278.003906 " fill-opacity="1" fill-rule="nonzero"/><path fill="#100f0d" d="M 298.554688 265.398438 C 301.140625 261.738281 298.703125 251.519531 298.703125 248.40625 C 298.703125 245.011719 293.425781 245.3125 287.847656 243.652344 C 282.269531 241.988281 280.910156 240.78125 271.5625 245.3125 C 262.210938 249.84375 265.078125 262.378906 265.078125 262.378906 C 252.964844 262.425781 256.882812 255.78125 255.578125 250.546875 C 254.269531 245.3125 257.386719 242.394531 261.507812 237.460938 C 265.628906 232.527344 273.222656 231.269531 279.476562 229.304688 C 285.738281 227.339844 286.039062 229.457031 293.277344 232.023438 C 300.511719 234.589844 300.0625 241.082031 303.226562 248.40625 C 305.804688 254.363281 300.777344 262.949219 298.554688 265.398438 " fill-opacity="1" fill-rule="nonzero"/><path fill="#100f0d" d="M 288.855469 265.082031 C 289.007812 264.808594 289.179688 264.46875 289.355469 264.039062 C 290.460938 261.371094 289.453125 256.539062 289.355469 254.421875 C 289.253906 252.308594 287.949219 252.710938 283.527344 251.804688 C 279.101562 250.898438 278.796875 250.195312 275.082031 256.539062 C 271.359375 262.878906 276.988281 268.417969 276.988281 268.417969 C 276.988281 268.417969 274.375 269.523438 270.453125 265.898438 C 266.535156 262.277344 268.140625 256.335938 268.445312 252.8125 C 268.746094 249.289062 274.777344 247.074219 276.890625 245.90625 C 279 244.746094 282.316406 244.757812 284.527344 245.90625 C 286.746094 247.0625 291.824219 243.785156 295.488281 251.21875 C 298.375 257.082031 291.777344 262.886719 288.855469 265.082031 " fill-opacity="1" fill-rule="nonzero"/><path fill="#100f0d" d="M 296.503906 260.96875 C 296.503906 260.96875 297.394531 265.316406 295.789062 269.183594 C 294.183594 273.046875 294.886719 273.25 292.269531 275.765625 C 289.65625 278.285156 287.746094 281.605469 283.324219 282.410156 C 278.898438 283.21875 275.585938 283.417969 272.367188 281.003906 C 269.148438 278.585938 267.140625 277.980469 264.425781 275.867188 C 261.710938 273.753906 256.382812 270.832031 257.484375 262.78125 C 257.484375 262.78125 264.726562 264.492188 267.742188 267.914062 C 270.753906 271.335938 275.484375 272.492188 281.3125 271.964844 C 287.144531 271.4375 285.132812 271.15625 289.152344 269.183594 C 293.175781 267.210938 296.503906 260.96875 296.503906 260.96875 " fill-opacity="1" fill-rule="nonzero"/><path fill="#100f0d" d="M 306.949219 253.316406 C 306.949219 253.316406 305.039062 256.035156 302.125 266 C 299.207031 275.96875 297.496094 275.261719 293.878906 279.191406 C 290.261719 283.117188 285.234375 287.847656 281.511719 287.144531 C 279.851562 286.832031 278.609375 286.808594 277.75 286.886719 C 276.90625 286.960938 276.375 287.820312 276.675781 288.609375 C 277.75 291.417969 280.558594 297.46875 284.730469 297.3125 C 290.160156 297.109375 293.175781 289.664062 297.699219 289.257812 C 302.226562 288.855469 303.628906 287.847656 305.136719 284.222656 C 306.648438 280.597656 305.335938 277.582031 306.949219 275.316406 C 308.554688 273.046875 308.054688 265.296875 308.054688 259.660156 C 308.054688 254.019531 306.949219 253.316406 306.949219 253.316406 " fill-opacity="1" fill-rule="nonzero"/><path fill="#100f0d" d="M 253.464844 243.953125 C 253.464844 243.953125 246.929688 251.503906 244.71875 255.832031 C 242.507812 260.160156 241.097656 263.183594 242.003906 267.511719 C 242.910156 271.839844 241.097656 273.550781 244.015625 278.789062 C 246.929688 284.023438 252.964844 284.125 257.789062 289.558594 C 262.613281 294.996094 266.835938 295.601562 270.855469 296.710938 C 274.878906 297.816406 276.988281 296.007812 278.601562 297.316406 C 278.601562 297.316406 273.417969 291.800781 272.425781 286.542969 C 272.171875 285.203125 271.445312 284.007812 270.339844 283.210938 C 268.171875 281.640625 264.476562 279.054688 260.90625 276.976562 C 255.375 273.753906 254.46875 273.152344 254.269531 270.632812 C 254.066406 268.117188 254.671875 268.417969 253.367188 262.679688 C 252.058594 256.941406 250.449219 256.636719 253.464844 243.953125 " fill-opacity="1" fill-rule="nonzero"/><path fill="#100f0d" d="M 282.519531 267.109375 C 282.519531 267.109375 277.191406 268.519531 277.59375 265.195312 C 277.996094 261.875 274.476562 258.089844 279.199219 256.808594 C 283.925781 255.53125 283.625 253.617188 284.832031 254.828125 C 286.039062 256.035156 287.949219 257.34375 286.84375 259.054688 C 285.738281 260.765625 285.335938 260.566406 285.835938 262.78125 C 286.339844 264.996094 284.832031 267.308594 282.519531 267.109375 " fill-opacity="1" fill-rule="nonzero"/><path fill="#100f0d" d="M 290.265625 227.785156 C 288.585938 227.359375 281.351562 226.027344 271.429688 228.769531 C 266.667969 230.085938 261.261719 232.34375 255.566406 236.09375 C 254.761719 236.636719 253.96875 237.195312 253.234375 237.773438 C 238.164062 249.449219 238.917969 267.402344 238.917969 267.402344 C 233.667969 260.425781 233.359375 251.476562 236.410156 243.496094 C 237.566406 240.480469 239.148438 237.523438 241.195312 235.03125 C 243.644531 232.035156 246.382812 230.585938 247.347656 226.472656 C 247.425781 226.066406 247.925781 223.976562 248.21875 222.160156 L 288.566406 222.160156 C 290.59375 225.097656 291.5 228.09375 290.265625 227.785156 " fill-opacity="1" fill-rule="nonzero"/><path fill="#100f0d" d="M 239.375 271.359375 C 239.375 271.359375 236.207031 275.96875 239.375 285.933594 C 242.542969 295.902344 239.375 301.335938 239.375 301.335938 C 239.375 301.335938 251.136719 298.167969 258.824219 304.734375 C 266.515625 311.304688 278.601562 301.335938 278.601562 301.335938 C 278.601562 301.335938 264.707031 303.378906 254.300781 293.863281 C 243.898438 284.347656 239.164062 282.210938 239.375 271.359375 " fill-opacity="1" fill-rule="nonzero"/><path fill="#100f0d" d="M 282.03125 300.882812 C 282.03125 300.882812 286.308594 306.320312 296.207031 302.472656 C 306.097656 298.621094 313.5625 300.882812 313.5625 300.882812 C 313.5625 300.882812 311.980469 292.726562 319.441406 290.238281 C 326.90625 287.746094 328.941406 274.78125 322.382812 268.578125 C 322.382812 268.578125 317.464844 282.164062 310.847656 284.121094 C 304.234375 286.078125 306.46875 291.621094 296.453125 294.316406 C 286.429688 297.007812 293.042969 300.511719 282.03125 300.882812 " fill-opacity="1" fill-rule="nonzero"/><path fill="#100f0d" d="M 321.960938 254.441406 C 323.515625 260.335938 318.691406 277.777344 310.695312 279.589844 C 310.695312 279.589844 317.03125 264.867188 310.695312 254.671875 C 304.367188 244.480469 307.078125 246.066406 302.105469 236.78125 C 297.128906 227.492188 297.652344 227.296875 292.359375 225.378906 C 292.359375 225.378906 305.636719 223.8125 312.433594 233.15625 C 314.910156 236.5625 317.117188 238.449219 318.914062 239.46875 C 322.054688 241.246094 323.96875 240.402344 323.96875 240.402344 C 323.96875 240.402344 322.339844 244.125 321.765625 248.363281 C 321.492188 250.386719 321.457031 252.535156 321.960938 254.441406 " fill-opacity="1" fill-rule="nonzero"/><g fill="#000000" fill-opacity="1"><g transform="translate(50.343751, 199.124987)"><g><path d="M 3.640625 12.046875 C 2.265625 12.046875 1.21875 11.644531 0.5 10.84375 C -0.207031 10.050781 -0.5625 8.921875 -0.5625 7.453125 C -0.5625 6.285156 -0.253906 5.144531 0.359375 4.03125 C 0.984375 2.925781 1.796875 1.847656 2.796875 0.796875 C 3.804688 -0.242188 4.90625 -1.222656 6.09375 -2.140625 C 5.039062 -3.117188 4.019531 -4.0625 3.03125 -4.96875 C 2.039062 -5.875 1.222656 -6.796875 0.578125 -7.734375 C -0.0664062 -8.671875 -0.390625 -9.640625 -0.390625 -10.640625 C -0.390625 -12.253906 -0.125 -13.585938 0.40625 -14.640625 C 0.945312 -15.703125 1.640625 -16.507812 2.484375 -17.0625 C 3.328125 -17.613281 4.21875 -17.910156 5.15625 -17.953125 C 6.101562 -18.003906 6.988281 -17.820312 7.8125 -17.40625 C 8.644531 -17 9.316406 -16.363281 9.828125 -15.5 C 10.347656 -14.632812 10.59375 -13.570312 10.5625 -12.3125 C 10.5625 -11.78125 10.519531 -11.410156 10.4375 -11.203125 C 10.363281 -10.992188 10.257812 -10.878906 10.125 -10.859375 C 10 -10.847656 9.832031 -10.84375 9.625 -10.84375 C 9.039062 -10.84375 8.710938 -10.992188 8.640625 -11.296875 C 8.578125 -11.609375 8.53125 -12.019531 8.5 -12.53125 C 8.457031 -13.488281 8.273438 -14.179688 7.953125 -14.609375 C 7.640625 -15.046875 7.265625 -15.273438 6.828125 -15.296875 C 6.398438 -15.316406 5.972656 -15.179688 5.546875 -14.890625 C 5.117188 -14.597656 4.757812 -14.207031 4.46875 -13.71875 C 4.175781 -13.226562 4.03125 -12.679688 4.03125 -12.078125 C 4.03125 -11.210938 4.242188 -10.398438 4.671875 -9.640625 C 5.097656 -8.878906 5.613281 -8.175781 6.21875 -7.53125 C 6.832031 -6.894531 7.425781 -6.332031 8 -5.84375 C 8.570312 -5.351562 9 -4.929688 9.28125 -4.578125 C 10.1875 -5.285156 11.046875 -5.976562 11.859375 -6.65625 C 12.679688 -7.332031 13.398438 -8.039062 14.015625 -8.78125 C 14.628906 -9.53125 15.054688 -10.359375 15.296875 -11.265625 C 15.335938 -11.453125 15.445312 -11.585938 15.625 -11.671875 C 15.800781 -11.753906 15.984375 -11.757812 16.171875 -11.6875 C 16.609375 -11.519531 16.75 -11.21875 16.59375 -10.78125 C 16.070312 -9.425781 15.222656 -8.128906 14.046875 -6.890625 C 12.867188 -5.660156 11.554688 -4.519531 10.109375 -3.46875 C 10.785156 -2.625 11.289062 -1.585938 11.625 -0.359375 C 11.96875 0.859375 12.140625 2.078125 12.140625 3.296875 C 12.140625 4.429688 11.898438 5.523438 11.421875 6.578125 C 10.941406 7.628906 10.300781 8.566406 9.5 9.390625 C 8.695312 10.222656 7.785156 10.875 6.765625 11.34375 C 5.753906 11.8125 4.710938 12.046875 3.640625 12.046875 Z M 2.9375 10.328125 C 3.570312 10.328125 4.1875 10.113281 4.78125 9.6875 C 5.375 9.269531 5.910156 8.722656 6.390625 8.046875 C 6.867188 7.367188 7.242188 6.632812 7.515625 5.84375 C 7.796875 5.050781 7.9375 4.289062 7.9375 3.5625 C 7.9375 2.65625 7.851562 1.832031 7.6875 1.09375 C 7.53125 0.363281 7.253906 -0.328125 6.859375 -0.984375 C 5.765625 -0.117188 4.753906 0.769531 3.828125 1.6875 C 2.910156 2.613281 2.179688 3.566406 1.640625 4.546875 C 1.109375 5.523438 0.84375 6.539062 0.84375 7.59375 C 0.84375 8.550781 1.007812 9.242188 1.34375 9.671875 C 1.6875 10.109375 2.21875 10.328125 2.9375 10.328125 Z M 2.9375 10.328125 "/></g></g></g><g fill="#000000" fill-opacity="1"><g transform="translate(65.25039, 199.124987)"><g><path d="M 12.21875 9.421875 C 11.425781 9.421875 10.804688 9.15625 10.359375 8.625 C 9.910156 8.101562 9.585938 7.40625 9.390625 6.53125 C 9.191406 5.65625 9.09375 4.664062 9.09375 3.5625 C 9.09375 2.46875 9.15625 1.363281 9.28125 0.25 C 9.550781 -3.019531 9.773438 -5.640625 9.953125 -7.609375 C 10.128906 -9.578125 10.175781 -11 10.09375 -11.875 C 10.007812 -12.75 9.703125 -13.1875 9.171875 -13.1875 C 8.773438 -13.1875 8.363281 -12.851562 7.9375 -12.1875 C 7.519531 -11.53125 7.113281 -10.671875 6.71875 -9.609375 C 6.320312 -8.546875 5.945312 -7.414062 5.59375 -6.21875 C 5.25 -5.03125 4.9375 -3.910156 4.65625 -2.859375 C 4.375 -1.816406 4.140625 -0.96875 3.953125 -0.3125 C 3.859375 0.0078125 3.59375 0.242188 3.15625 0.390625 C 2.726562 0.546875 2.242188 0.613281 1.703125 0.59375 C 1.171875 0.570312 0.710938 0.46875 0.328125 0.28125 C -0.0546875 0.09375 -0.234375 -0.175781 -0.203125 -0.53125 L 0.03125 -11.03125 C 0.03125 -11.394531 0.238281 -11.6875 0.65625 -11.90625 C 1.082031 -12.132812 1.570312 -12.257812 2.125 -12.28125 C 2.6875 -12.300781 3.175781 -12.207031 3.59375 -12 C 4.019531 -11.789062 4.234375 -11.453125 4.234375 -10.984375 L 4.125 -6.46875 C 4.5 -7.59375 4.878906 -8.679688 5.265625 -9.734375 C 5.648438 -10.785156 6.085938 -11.71875 6.578125 -12.53125 C 7.066406 -13.34375 7.648438 -13.988281 8.328125 -14.46875 C 9.003906 -14.945312 9.8125 -15.1875 10.75 -15.1875 C 11.820312 -15.1875 12.625 -14.863281 13.15625 -14.21875 C 13.695312 -13.582031 14.035156 -12.722656 14.171875 -11.640625 C 14.316406 -10.554688 14.347656 -9.351562 14.265625 -8.03125 C 14.179688 -6.71875 14.070312 -5.367188 13.9375 -3.984375 C 13.84375 -2.960938 13.738281 -1.835938 13.625 -0.609375 C 13.519531 0.609375 13.453125 1.769531 13.421875 2.875 C 13.390625 3.988281 13.398438 4.898438 13.453125 5.609375 C 13.515625 6.328125 13.648438 6.6875 13.859375 6.6875 C 14.085938 6.6875 14.378906 6.410156 14.734375 5.859375 C 15.085938 5.316406 15.460938 4.617188 15.859375 3.765625 C 16.253906 2.910156 16.628906 2.023438 16.984375 1.109375 C 17.347656 0.203125 17.648438 -0.609375 17.890625 -1.328125 C 18.046875 -1.816406 18.234375 -2.4375 18.453125 -3.1875 C 18.679688 -3.9375 18.910156 -4.738281 19.140625 -5.59375 C 19.378906 -6.457031 19.601562 -7.296875 19.8125 -8.109375 C 20.019531 -8.929688 20.191406 -9.644531 20.328125 -10.25 C 20.453125 -10.71875 20.5625 -11.085938 20.65625 -11.359375 C 20.75 -11.628906 20.96875 -11.726562 21.3125 -11.65625 C 21.757812 -11.539062 21.960938 -11.363281 21.921875 -11.125 C 21.890625 -10.894531 21.816406 -10.5 21.703125 -9.9375 C 21.328125 -8.375 20.941406 -6.863281 20.546875 -5.40625 C 20.148438 -3.945312 19.707031 -2.445312 19.21875 -0.90625 C 18.769531 0.445312 18.289062 1.738281 17.78125 2.96875 C 17.269531 4.207031 16.722656 5.3125 16.140625 6.28125 C 15.554688 7.25 14.9375 8.015625 14.28125 8.578125 C 13.625 9.140625 12.9375 9.421875 12.21875 9.421875 Z M 12.21875 9.421875 "/></g></g></g><g fill="#000000" fill-opacity="1"><g transform="translate(85.440833, 199.124987)"><g><path d="M 3.5625 4.65625 C 2.582031 4.65625 1.800781 4.378906 1.21875 3.828125 C 0.632812 3.285156 0.191406 2.5625 -0.109375 1.65625 C -0.410156 0.757812 -0.613281 -0.222656 -0.71875 -1.296875 C -0.820312 -2.367188 -0.875 -3.441406 -0.875 -4.515625 C -0.875 -5.585938 -0.875 -6.554688 -0.875 -7.421875 C -0.875 -8.816406 -0.632812 -10.125 -0.15625 -11.34375 C 0.320312 -12.570312 1.003906 -13.5625 1.890625 -14.3125 C 2.773438 -15.0625 3.828125 -15.4375 5.046875 -15.4375 C 6.210938 -15.4375 7.015625 -15.210938 7.453125 -14.765625 C 7.898438 -14.328125 8.078125 -13.75 7.984375 -13.03125 C 7.890625 -12.320312 7.625 -11.578125 7.1875 -10.796875 C 6.757812 -10.015625 6.25 -9.265625 5.65625 -8.546875 C 5.0625 -7.835938 4.476562 -7.257812 3.90625 -6.8125 C 3.332031 -6.375 2.859375 -6.15625 2.484375 -6.15625 C 2.484375 -5.59375 2.476562 -4.910156 2.46875 -4.109375 C 2.457031 -3.304688 2.460938 -2.476562 2.484375 -1.625 C 2.503906 -0.769531 2.554688 0.0234375 2.640625 0.765625 C 2.722656 1.515625 2.863281 2.125 3.0625 2.59375 C 3.257812 3.0625 3.519531 3.296875 3.84375 3.296875 C 4.3125 3.296875 4.875 2.945312 5.53125 2.25 C 6.1875 1.5625 6.882812 0.601562 7.625 -0.625 C 8.375 -1.863281 9.113281 -3.328125 9.84375 -5.015625 C 10.582031 -6.710938 11.269531 -8.550781 11.90625 -10.53125 C 12.039062 -10.957031 12.160156 -11.285156 12.265625 -11.515625 C 12.367188 -11.742188 12.609375 -11.800781 12.984375 -11.6875 C 13.378906 -11.59375 13.546875 -11.394531 13.484375 -11.09375 C 13.429688 -10.789062 13.347656 -10.460938 13.234375 -10.109375 C 12.128906 -6.867188 10.976562 -4.148438 9.78125 -1.953125 C 8.582031 0.234375 7.4375 1.878906 6.34375 2.984375 C 5.257812 4.097656 4.332031 4.65625 3.5625 4.65625 Z M 2.59375 -7.421875 C 2.96875 -7.460938 3.390625 -7.6875 3.859375 -8.09375 C 4.335938 -8.507812 4.800781 -9.007812 5.25 -9.59375 C 5.695312 -10.175781 6.066406 -10.753906 6.359375 -11.328125 C 6.648438 -11.898438 6.796875 -12.375 6.796875 -12.75 C 6.796875 -13.132812 6.570312 -13.328125 6.125 -13.328125 C 5.988281 -13.328125 5.753906 -13.25 5.421875 -13.09375 C 5.097656 -12.945312 4.742188 -12.664062 4.359375 -12.25 C 3.972656 -11.832031 3.613281 -11.238281 3.28125 -10.46875 C 2.957031 -9.695312 2.726562 -8.679688 2.59375 -7.421875 Z M 2.59375 -7.421875 "/></g></g></g><g fill="#000000" fill-opacity="1"><g transform="translate(97.198183, 199.124987)"><g><path d="M 12.53125 5.5625 C 11.289062 5.5625 10.347656 5.359375 9.703125 4.953125 C 9.066406 4.546875 8.632812 3.972656 8.40625 3.234375 C 8.1875 2.503906 8.097656 1.65625 8.140625 0.6875 C 8.191406 -0.28125 8.28125 -1.328125 8.40625 -2.453125 C 8.539062 -3.660156 8.675781 -4.894531 8.8125 -6.15625 C 8.957031 -7.414062 9.054688 -8.582031 9.109375 -9.65625 C 9.171875 -10.726562 9.15625 -11.59375 9.0625 -12.25 C 8.96875 -12.90625 8.757812 -13.234375 8.4375 -13.234375 C 7.96875 -13.234375 7.5 -12.90625 7.03125 -12.25 C 6.5625 -11.59375 6.101562 -10.742188 5.65625 -9.703125 C 5.21875 -8.671875 4.816406 -7.570312 4.453125 -6.40625 C 4.097656 -5.238281 3.796875 -4.128906 3.546875 -3.078125 C 3.304688 -2.023438 3.148438 -1.160156 3.078125 -0.484375 C 3.054688 -0.179688 2.820312 0.0507812 2.375 0.21875 C 1.9375 0.394531 1.429688 0.492188 0.859375 0.515625 C 0.285156 0.546875 -0.203125 0.476562 -0.609375 0.3125 C -1.015625 0.144531 -1.195312 -0.144531 -1.15625 -0.5625 C -0.851562 -4.3125 -0.585938 -7.539062 -0.359375 -10.25 C -0.140625 -12.957031 0.0664062 -15.25 0.265625 -17.125 C 0.460938 -19.007812 0.6875 -20.601562 0.9375 -21.90625 C 1.195312 -23.21875 1.507812 -24.347656 1.875 -25.296875 C 2.238281 -26.253906 2.695312 -27.164062 3.25 -28.03125 C 4.019531 -29.21875 4.941406 -30.117188 6.015625 -30.734375 C 7.085938 -31.359375 8.191406 -31.679688 9.328125 -31.703125 C 10.460938 -31.734375 11.5 -31.445312 12.4375 -30.84375 C 13.382812 -30.25 14.113281 -29.335938 14.625 -28.109375 C 15.113281 -26.910156 15.273438 -25.832031 15.109375 -24.875 C 14.953125 -23.925781 14.546875 -23.0625 13.890625 -22.28125 C 13.242188 -21.5 12.410156 -20.769531 11.390625 -20.09375 C 10.378906 -19.414062 9.265625 -18.769531 8.046875 -18.15625 C 6.835938 -17.550781 5.601562 -16.9375 4.34375 -16.3125 C 4.15625 -14.8125 4 -13.425781 3.875 -12.15625 C 3.757812 -10.882812 3.679688 -9.457031 3.640625 -7.875 C 4.035156 -9.082031 4.488281 -10.238281 5 -11.34375 C 5.519531 -12.457031 6.15625 -13.375 6.90625 -14.09375 C 7.664062 -14.820312 8.582031 -15.1875 9.65625 -15.1875 C 10.757812 -15.1875 11.585938 -14.867188 12.140625 -14.234375 C 12.703125 -13.609375 13.0625 -12.796875 13.21875 -11.796875 C 13.382812 -10.796875 13.425781 -9.703125 13.34375 -8.515625 C 13.269531 -7.335938 13.140625 -6.203125 12.953125 -5.109375 C 12.878906 -4.710938 12.800781 -4.179688 12.71875 -3.515625 C 12.632812 -2.847656 12.5625 -2.128906 12.5 -1.359375 C 12.445312 -0.585938 12.425781 0.140625 12.4375 0.828125 C 12.445312 1.515625 12.507812 2.070312 12.625 2.5 C 12.75 2.9375 12.9375 3.15625 13.1875 3.15625 C 13.519531 3.15625 13.90625 2.773438 14.34375 2.015625 C 14.789062 1.253906 15.285156 0.210938 15.828125 -1.109375 C 16.378906 -2.441406 16.96875 -3.96875 17.59375 -5.6875 C 18.226562 -7.40625 18.882812 -9.21875 19.5625 -11.125 C 19.675781 -11.570312 19.957031 -11.738281 20.40625 -11.625 C 20.84375 -11.5 21.003906 -11.21875 20.890625 -10.78125 C 20.242188 -8.75 19.59375 -6.757812 18.9375 -4.8125 C 18.28125 -2.863281 17.609375 -1.109375 16.921875 0.453125 C 16.234375 2.015625 15.523438 3.253906 14.796875 4.171875 C 14.078125 5.097656 13.320312 5.5625 12.53125 5.5625 Z M 4.578125 -17.984375 C 5.960938 -18.546875 7.285156 -19.179688 8.546875 -19.890625 C 9.804688 -20.609375 10.882812 -21.378906 11.78125 -22.203125 C 12.675781 -23.035156 13.285156 -23.90625 13.609375 -24.8125 C 13.941406 -25.726562 13.847656 -26.648438 13.328125 -27.578125 C 12.492188 -29.140625 11.550781 -29.832031 10.5 -29.65625 C 9.445312 -29.488281 8.347656 -28.578125 7.203125 -26.921875 C 6.066406 -25.234375 5.191406 -22.253906 4.578125 -17.984375 Z M 4.578125 -17.984375 "/></g></g></g><g fill="#000000" fill-opacity="1"><g transform="translate(116.373857, 199.124987)"><g><path d="M 10.328125 5.3125 C 9.503906 5.3125 8.890625 5.023438 8.484375 4.453125 C 8.078125 3.890625 7.828125 3.125 7.734375 2.15625 C 7.640625 1.1875 7.648438 0.101562 7.765625 -1.09375 C 7.878906 -2.300781 8.054688 -3.546875 8.296875 -4.828125 C 7.828125 -4.015625 7.273438 -3.203125 6.640625 -2.390625 C 6.015625 -1.585938 5.304688 -0.921875 4.515625 -0.390625 C 3.722656 0.128906 2.820312 0.390625 1.8125 0.390625 C 0.976562 0.390625 0.296875 0.113281 -0.234375 -0.4375 C -0.773438 -0.988281 -1.160156 -1.710938 -1.390625 -2.609375 C -1.628906 -3.503906 -1.722656 -4.492188 -1.671875 -5.578125 C -1.628906 -6.660156 -1.460938 -7.75 -1.171875 -8.84375 C -0.878906 -9.945312 -0.46875 -10.957031 0.0625 -11.875 C 0.601562 -12.800781 1.253906 -13.5625 2.015625 -14.15625 C 2.773438 -14.75 3.628906 -15.070312 4.578125 -15.125 C 6.054688 -15.21875 7.210938 -14.972656 8.046875 -14.390625 C 8.890625 -13.804688 9.519531 -13.054688 9.9375 -12.140625 C 10.082031 -12.515625 10.21875 -12.867188 10.34375 -13.203125 C 10.46875 -13.546875 10.578125 -13.867188 10.671875 -14.171875 C 10.765625 -14.503906 11.039062 -14.710938 11.5 -14.796875 C 11.957031 -14.890625 12.457031 -14.894531 13 -14.8125 C 13.550781 -14.738281 14.003906 -14.609375 14.359375 -14.421875 C 14.722656 -14.234375 14.859375 -14.007812 14.765625 -13.75 C 14.609375 -13.238281 14.390625 -12.46875 14.109375 -11.4375 C 13.828125 -10.414062 13.535156 -9.273438 13.234375 -8.015625 C 12.929688 -6.753906 12.632812 -5.472656 12.34375 -4.171875 C 12.050781 -2.878906 11.796875 -1.6875 11.578125 -0.59375 C 11.367188 0.5 11.222656 1.382812 11.140625 2.0625 C 11.066406 2.738281 11.085938 3.078125 11.203125 3.078125 C 11.671875 3.078125 12.34375 2.707031 13.21875 1.96875 C 14.09375 1.238281 15.046875 0.222656 16.078125 -1.078125 C 17.117188 -2.390625 18.125 -3.90625 19.09375 -5.625 C 20.0625 -7.351562 20.882812 -9.222656 21.5625 -11.234375 C 21.675781 -11.585938 21.859375 -11.769531 22.109375 -11.78125 C 22.367188 -11.789062 22.59375 -11.703125 22.78125 -11.515625 C 22.96875 -11.328125 23.015625 -11.09375 22.921875 -10.8125 C 22.546875 -9.625 22.007812 -8.3125 21.3125 -6.875 C 20.613281 -5.4375 19.8125 -4 18.90625 -2.5625 C 18.007812 -1.132812 17.054688 0.171875 16.046875 1.359375 C 15.035156 2.554688 14.035156 3.515625 13.046875 4.234375 C 12.066406 4.953125 11.160156 5.3125 10.328125 5.3125 Z M 3.75 -1.75 C 4.09375 -1.75 4.484375 -2 4.921875 -2.5 C 5.367188 -3 5.84375 -3.65625 6.34375 -4.46875 C 6.851562 -5.289062 7.347656 -6.203125 7.828125 -7.203125 C 8.304688 -8.210938 8.753906 -9.21875 9.171875 -10.21875 C 8.890625 -11.03125 8.445312 -11.757812 7.84375 -12.40625 C 7.238281 -13.050781 6.550781 -13.375 5.78125 -13.375 C 5.382812 -13.375 5.007812 -13.09375 4.65625 -12.53125 C 4.300781 -11.96875 3.992188 -11.242188 3.734375 -10.359375 C 3.484375 -9.472656 3.28125 -8.539062 3.125 -7.5625 C 2.976562 -6.582031 2.890625 -5.648438 2.859375 -4.765625 C 2.835938 -3.878906 2.894531 -3.15625 3.03125 -2.59375 C 3.175781 -2.03125 3.414062 -1.75 3.75 -1.75 Z M 3.75 -1.75 "/></g></g></g><g fill="#000000" fill-opacity="1"><g transform="translate(137.579071, 199.124987)"><g><path d="M 11.3125 5.671875 C 9.601562 5.671875 8.570312 4.410156 8.21875 1.890625 C 8.125 1.253906 8.070312 0.523438 8.0625 -0.296875 C 8.050781 -1.128906 8.082031 -2.054688 8.15625 -3.078125 C 7.269531 -1.867188 6.238281 -0.953125 5.0625 -0.328125 C 3.882812 0.285156 2.742188 0.59375 1.640625 0.59375 C 0.921875 0.59375 0.332031 0.304688 -0.125 -0.265625 C -0.582031 -0.835938 -0.921875 -1.59375 -1.140625 -2.53125 C -1.359375 -3.476562 -1.445312 -4.515625 -1.40625 -5.640625 C -1.375 -6.773438 -1.210938 -7.898438 -0.921875 -9.015625 C -0.628906 -10.140625 -0.222656 -11.175781 0.296875 -12.125 C 0.816406 -13.070312 1.46875 -13.832031 2.25 -14.40625 C 3.039062 -14.976562 3.945312 -15.265625 4.96875 -15.265625 C 5.851562 -15.265625 6.523438 -15.101562 6.984375 -14.78125 C 7.441406 -14.46875 7.789062 -14.082031 8.03125 -13.625 C 8.28125 -13.175781 8.519531 -12.726562 8.75 -12.28125 C 9.03125 -14.457031 9.320312 -16.578125 9.625 -18.640625 C 9.925781 -20.703125 10.285156 -22.628906 10.703125 -24.421875 C 11.128906 -26.222656 11.648438 -27.800781 12.265625 -29.15625 C 12.878906 -30.507812 13.632812 -31.570312 14.53125 -32.34375 C 15.4375 -33.113281 16.519531 -33.5 17.78125 -33.5 C 18.570312 -33.5 19.21875 -33.242188 19.71875 -32.734375 C 20.21875 -32.234375 20.585938 -31.59375 20.828125 -30.8125 C 21.078125 -30.03125 21.179688 -29.207031 21.140625 -28.34375 C 21.117188 -27.457031 20.984375 -26.421875 20.734375 -25.234375 C 20.492188 -24.046875 20.148438 -22.789062 19.703125 -21.46875 C 19.265625 -20.15625 18.722656 -18.851562 18.078125 -17.5625 C 17.429688 -16.28125 16.703125 -15.101562 15.890625 -14.03125 C 15.078125 -12.957031 14.175781 -12.070312 13.1875 -11.375 C 12.9375 -9.507812 12.722656 -7.707031 12.546875 -5.96875 C 12.367188 -4.226562 12.269531 -2.675781 12.25 -1.3125 C 12.226562 0.0507812 12.289062 1.132812 12.4375 1.9375 C 12.59375 2.75 12.859375 3.15625 13.234375 3.15625 C 13.648438 3.15625 14.113281 2.832031 14.625 2.1875 C 15.144531 1.539062 15.679688 0.703125 16.234375 -0.328125 C 16.796875 -1.367188 17.34375 -2.5 17.875 -3.71875 C 18.414062 -4.945312 18.929688 -6.15625 19.421875 -7.34375 C 19.910156 -8.539062 20.332031 -9.601562 20.6875 -10.53125 C 20.800781 -10.957031 20.914062 -11.273438 21.03125 -11.484375 C 21.144531 -11.691406 21.390625 -11.757812 21.765625 -11.6875 C 22.160156 -11.59375 22.332031 -11.394531 22.28125 -11.09375 C 22.238281 -10.789062 22.148438 -10.460938 22.015625 -10.109375 C 21.523438 -8.660156 20.984375 -7.195312 20.390625 -5.71875 C 19.796875 -4.238281 19.144531 -2.816406 18.4375 -1.453125 C 17.738281 -0.0859375 17.003906 1.128906 16.234375 2.203125 C 15.460938 3.273438 14.660156 4.117188 13.828125 4.734375 C 13.003906 5.359375 12.175781 5.671875 11.34375 5.671875 Z M 13.328125 -13.578125 C 14.242188 -14.441406 15.078125 -15.523438 15.828125 -16.828125 C 16.585938 -18.140625 17.25 -19.507812 17.8125 -20.9375 C 18.375 -22.375 18.820312 -23.753906 19.15625 -25.078125 C 19.5 -26.398438 19.691406 -27.515625 19.734375 -28.421875 C 19.765625 -28.859375 19.765625 -29.289062 19.734375 -29.71875 C 19.710938 -30.15625 19.628906 -30.507812 19.484375 -30.78125 C 19.347656 -31.050781 19.117188 -31.160156 18.796875 -31.109375 C 18.117188 -31.015625 17.53125 -30.617188 17.03125 -29.921875 C 16.53125 -29.222656 16.09375 -28.332031 15.71875 -27.25 C 15.34375 -26.164062 15.023438 -24.976562 14.765625 -23.6875 C 14.515625 -22.40625 14.300781 -21.125 14.125 -19.84375 C 13.945312 -18.5625 13.800781 -17.367188 13.6875 -16.265625 C 13.570312 -15.171875 13.453125 -14.273438 13.328125 -13.578125 Z M 4.0625 -1.578125 C 4.457031 -1.578125 4.867188 -1.742188 5.296875 -2.078125 C 5.734375 -2.421875 6.15625 -2.847656 6.5625 -3.359375 C 6.96875 -3.867188 7.335938 -4.398438 7.671875 -4.953125 C 8.015625 -5.503906 8.289062 -5.976562 8.5 -6.375 L 8.75 -8.15625 L 8.75 -8.1875 C 8.445312 -9.101562 8.195312 -9.910156 8 -10.609375 C 7.800781 -11.304688 7.5625 -11.851562 7.28125 -12.25 C 7 -12.644531 6.59375 -12.84375 6.0625 -12.84375 C 5.632812 -12.84375 5.234375 -12.578125 4.859375 -12.046875 C 4.492188 -11.523438 4.164062 -10.851562 3.875 -10.03125 C 3.582031 -9.21875 3.347656 -8.359375 3.171875 -7.453125 C 2.992188 -6.546875 2.90625 -5.707031 2.90625 -4.9375 C 2.90625 -4 3 -3.203125 3.1875 -2.546875 C 3.375 -1.898438 3.664062 -1.578125 4.0625 -1.578125 Z M 4.0625 -1.578125 "/></g></g></g><g fill="#000000" fill-opacity="1"><g transform="translate(158.119429, 199.124987)"><g><path d="M 3.5625 4.65625 C 2.582031 4.65625 1.800781 4.378906 1.21875 3.828125 C 0.632812 3.285156 0.191406 2.5625 -0.109375 1.65625 C -0.410156 0.757812 -0.613281 -0.222656 -0.71875 -1.296875 C -0.820312 -2.367188 -0.875 -3.441406 -0.875 -4.515625 C -0.875 -5.585938 -0.875 -6.554688 -0.875 -7.421875 C -0.875 -8.816406 -0.632812 -10.125 -0.15625 -11.34375 C 0.320312 -12.570312 1.003906 -13.5625 1.890625 -14.3125 C 2.773438 -15.0625 3.828125 -15.4375 5.046875 -15.4375 C 6.210938 -15.4375 7.015625 -15.210938 7.453125 -14.765625 C 7.898438 -14.328125 8.078125 -13.75 7.984375 -13.03125 C 7.890625 -12.320312 7.625 -11.578125 7.1875 -10.796875 C 6.757812 -10.015625 6.25 -9.265625 5.65625 -8.546875 C 5.0625 -7.835938 4.476562 -7.257812 3.90625 -6.8125 C 3.332031 -6.375 2.859375 -6.15625 2.484375 -6.15625 C 2.484375 -5.59375 2.476562 -4.910156 2.46875 -4.109375 C 2.457031 -3.304688 2.460938 -2.476562 2.484375 -1.625 C 2.503906 -0.769531 2.554688 0.0234375 2.640625 0.765625 C 2.722656 1.515625 2.863281 2.125 3.0625 2.59375 C 3.257812 3.0625 3.519531 3.296875 3.84375 3.296875 C 4.3125 3.296875 4.875 2.945312 5.53125 2.25 C 6.1875 1.5625 6.882812 0.601562 7.625 -0.625 C 8.375 -1.863281 9.113281 -3.328125 9.84375 -5.015625 C 10.582031 -6.710938 11.269531 -8.550781 11.90625 -10.53125 C 12.039062 -10.957031 12.160156 -11.285156 12.265625 -11.515625 C 12.367188 -11.742188 12.609375 -11.800781 12.984375 -11.6875 C 13.378906 -11.59375 13.546875 -11.394531 13.484375 -11.09375 C 13.429688 -10.789062 13.347656 -10.460938 13.234375 -10.109375 C 12.128906 -6.867188 10.976562 -4.148438 9.78125 -1.953125 C 8.582031 0.234375 7.4375 1.878906 6.34375 2.984375 C 5.257812 4.097656 4.332031 4.65625 3.5625 4.65625 Z M 2.59375 -7.421875 C 2.96875 -7.460938 3.390625 -7.6875 3.859375 -8.09375 C 4.335938 -8.507812 4.800781 -9.007812 5.25 -9.59375 C 5.695312 -10.175781 6.066406 -10.753906 6.359375 -11.328125 C 6.648438 -11.898438 6.796875 -12.375 6.796875 -12.75 C 6.796875 -13.132812 6.570312 -13.328125 6.125 -13.328125 C 5.988281 -13.328125 5.753906 -13.25 5.421875 -13.09375 C 5.097656 -12.945312 4.742188 -12.664062 4.359375 -12.25 C 3.972656 -11.832031 3.613281 -11.238281 3.28125 -10.46875 C 2.957031 -9.695312 2.726562 -8.679688 2.59375 -7.421875 Z M 2.59375 -7.421875 "/></g></g></g><g fill="#000000" fill-opacity="1"><g transform="translate(169.876779, 199.124987)"><g><path d="M 3.640625 12.046875 C 2.265625 12.046875 1.21875 11.644531 0.5 10.84375 C -0.207031 10.050781 -0.5625 8.921875 -0.5625 7.453125 C -0.5625 6.285156 -0.253906 5.144531 0.359375 4.03125 C 0.984375 2.925781 1.796875 1.847656 2.796875 0.796875 C 3.804688 -0.242188 4.90625 -1.222656 6.09375 -2.140625 C 5.039062 -3.117188 4.019531 -4.0625 3.03125 -4.96875 C 2.039062 -5.875 1.222656 -6.796875 0.578125 -7.734375 C -0.0664062 -8.671875 -0.390625 -9.640625 -0.390625 -10.640625 C -0.390625 -12.253906 -0.125 -13.585938 0.40625 -14.640625 C 0.945312 -15.703125 1.640625 -16.507812 2.484375 -17.0625 C 3.328125 -17.613281 4.21875 -17.910156 5.15625 -17.953125 C 6.101562 -18.003906 6.988281 -17.820312 7.8125 -17.40625 C 8.644531 -17 9.316406 -16.363281 9.828125 -15.5 C 10.347656 -14.632812 10.59375 -13.570312 10.5625 -12.3125 C 10.5625 -11.78125 10.519531 -11.410156 10.4375 -11.203125 C 10.363281 -10.992188 10.257812 -10.878906 10.125 -10.859375 C 10 -10.847656 9.832031 -10.84375 9.625 -10.84375 C 9.039062 -10.84375 8.710938 -10.992188 8.640625 -11.296875 C 8.578125 -11.609375 8.53125 -12.019531 8.5 -12.53125 C 8.457031 -13.488281 8.273438 -14.179688 7.953125 -14.609375 C 7.640625 -15.046875 7.265625 -15.273438 6.828125 -15.296875 C 6.398438 -15.316406 5.972656 -15.179688 5.546875 -14.890625 C 5.117188 -14.597656 4.757812 -14.207031 4.46875 -13.71875 C 4.175781 -13.226562 4.03125 -12.679688 4.03125 -12.078125 C 4.03125 -11.210938 4.242188 -10.398438 4.671875 -9.640625 C 5.097656 -8.878906 5.613281 -8.175781 6.21875 -7.53125 C 6.832031 -6.894531 7.425781 -6.332031 8 -5.84375 C 8.570312 -5.351562 9 -4.929688 9.28125 -4.578125 C 10.1875 -5.285156 11.046875 -5.976562 11.859375 -6.65625 C 12.679688 -7.332031 13.398438 -8.039062 14.015625 -8.78125 C 14.628906 -9.53125 15.054688 -10.359375 15.296875 -11.265625 C 15.335938 -11.453125 15.445312 -11.585938 15.625 -11.671875 C 15.800781 -11.753906 15.984375 -11.757812 16.171875 -11.6875 C 16.609375 -11.519531 16.75 -11.21875 16.59375 -10.78125 C 16.070312 -9.425781 15.222656 -8.128906 14.046875 -6.890625 C 12.867188 -5.660156 11.554688 -4.519531 10.109375 -3.46875 C 10.785156 -2.625 11.289062 -1.585938 11.625 -0.359375 C 11.96875 0.859375 12.140625 2.078125 12.140625 3.296875 C 12.140625 4.429688 11.898438 5.523438 11.421875 6.578125 C 10.941406 7.628906 10.300781 8.566406 9.5 9.390625 C 8.695312 10.222656 7.785156 10.875 6.765625 11.34375 C 5.753906 11.8125 4.710938 12.046875 3.640625 12.046875 Z M 2.9375 10.328125 C 3.570312 10.328125 4.1875 10.113281 4.78125 9.6875 C 5.375 9.269531 5.910156 8.722656 6.390625 8.046875 C 6.867188 7.367188 7.242188 6.632812 7.515625 5.84375 C 7.796875 5.050781 7.9375 4.289062 7.9375 3.5625 C 7.9375 2.65625 7.851562 1.832031 7.6875 1.09375 C 7.53125 0.363281 7.253906 -0.328125 6.859375 -0.984375 C 5.765625 -0.117188 4.753906 0.769531 3.828125 1.6875 C 2.910156 2.613281 2.179688 3.566406 1.640625 4.546875 C 1.109375 5.523438 0.84375 6.539062 0.84375 7.59375 C 0.84375 8.550781 1.007812 9.242188 1.34375 9.671875 C 1.6875 10.109375 2.21875 10.328125 2.9375 10.328125 Z M 2.9375 10.328125 "/></g></g></g><g fill="#000000" fill-opacity="1"><g transform="translate(184.783418, 199.124987)"><g><path d="M 2.796875 -15.890625 C 2.304688 -15.890625 1.890625 -16.019531 1.546875 -16.28125 C 1.210938 -16.550781 1.046875 -16.890625 1.046875 -17.296875 C 1.046875 -17.691406 1.210938 -18.019531 1.546875 -18.28125 C 1.890625 -18.550781 2.304688 -18.6875 2.796875 -18.6875 C 3.265625 -18.6875 3.671875 -18.550781 4.015625 -18.28125 C 4.367188 -18.019531 4.546875 -17.691406 4.546875 -17.296875 C 4.546875 -16.890625 4.367188 -16.550781 4.015625 -16.28125 C 3.671875 -16.019531 3.265625 -15.890625 2.796875 -15.890625 Z M 2.765625 5.59375 C 1.804688 5.59375 1.054688 5.222656 0.515625 4.484375 C -0.015625 3.753906 -0.390625 2.78125 -0.609375 1.5625 C -0.828125 0.351562 -0.921875 -0.988281 -0.890625 -2.46875 C -0.859375 -3.945312 -0.742188 -5.441406 -0.546875 -6.953125 C -0.347656 -8.472656 -0.109375 -9.890625 0.171875 -11.203125 C 0.242188 -11.546875 0.503906 -11.796875 0.953125 -11.953125 C 1.410156 -12.109375 1.914062 -12.164062 2.46875 -12.125 C 3.019531 -12.09375 3.484375 -11.96875 3.859375 -11.75 C 4.242188 -11.539062 4.40625 -11.238281 4.34375 -10.84375 C 4.175781 -9.914062 3.992188 -8.84375 3.796875 -7.625 C 3.597656 -6.414062 3.414062 -5.179688 3.25 -3.921875 C 3.09375 -2.660156 2.972656 -1.492188 2.890625 -0.421875 C 2.804688 0.648438 2.796875 1.519531 2.859375 2.1875 C 2.929688 2.851562 3.109375 3.1875 3.390625 3.1875 C 4.066406 3.1875 4.753906 2.796875 5.453125 2.015625 C 6.160156 1.234375 6.859375 0.171875 7.546875 -1.171875 C 8.234375 -2.515625 8.882812 -4.03125 9.5 -5.71875 C 10.125 -7.414062 10.679688 -9.171875 11.171875 -10.984375 C 11.285156 -11.429688 11.5625 -11.597656 12 -11.484375 C 12.445312 -11.367188 12.613281 -11.085938 12.5 -10.640625 C 11.957031 -8.703125 11.34375 -6.769531 10.65625 -4.84375 C 9.96875 -2.914062 9.210938 -1.164062 8.390625 0.40625 C 7.578125 1.976562 6.695312 3.234375 5.75 4.171875 C 4.8125 5.117188 3.816406 5.59375 2.765625 5.59375 Z M 2.765625 5.59375 "/></g></g></g><g fill="#000000" fill-opacity="1"><g transform="translate(195.630962, 199.124987)"><g><path d="M -1.265625 13.578125 C -1.753906 12.390625 -1.914062 11.316406 -1.75 10.359375 C -1.582031 9.398438 -1.171875 8.53125 -0.515625 7.75 C 0.128906 6.96875 0.957031 6.238281 1.96875 5.5625 C 2.988281 4.882812 4.101562 4.242188 5.3125 3.640625 C 6.53125 3.035156 7.769531 2.414062 9.03125 1.78125 C 9.21875 0.289062 9.367188 -1.085938 9.484375 -2.359375 C 9.597656 -3.628906 9.679688 -5.0625 9.734375 -6.65625 C 8.867188 -5 8.070312 -3.648438 7.34375 -2.609375 C 6.625 -1.566406 5.878906 -0.804688 5.109375 -0.328125 C 4.335938 0.148438 3.453125 0.390625 2.453125 0.390625 C 1.609375 0.390625 0.914062 0.109375 0.375 -0.453125 C -0.15625 -1.015625 -0.535156 -1.753906 -0.765625 -2.671875 C -1.003906 -3.597656 -1.097656 -4.613281 -1.046875 -5.71875 C -1.003906 -6.832031 -0.835938 -7.9375 -0.546875 -9.03125 C -0.253906 -10.125 0.15625 -11.128906 0.6875 -12.046875 C 1.226562 -12.972656 1.878906 -13.71875 2.640625 -14.28125 C 3.398438 -14.84375 4.257812 -15.125 5.21875 -15.125 C 6.445312 -15.125 7.410156 -14.890625 8.109375 -14.421875 C 8.816406 -13.953125 9.378906 -13.472656 9.796875 -12.984375 C 9.796875 -13.828125 10 -14.453125 10.40625 -14.859375 C 10.820312 -15.265625 11.296875 -15.488281 11.828125 -15.53125 C 12.367188 -15.582031 12.84375 -15.46875 13.25 -15.1875 C 13.65625 -14.90625 13.859375 -14.5 13.859375 -13.96875 C 13.859375 -12.46875 13.859375 -11.179688 13.859375 -10.109375 C 13.859375 -9.035156 13.847656 -8.054688 13.828125 -7.171875 C 13.804688 -6.285156 13.769531 -5.378906 13.71875 -4.453125 C 13.675781 -3.535156 13.617188 -2.484375 13.546875 -1.296875 C 14.546875 -2.296875 15.492188 -3.582031 16.390625 -5.15625 C 17.296875 -6.738281 18.085938 -8.753906 18.765625 -11.203125 C 18.878906 -11.640625 19.15625 -11.800781 19.59375 -11.6875 C 20.039062 -11.570312 20.207031 -11.289062 20.09375 -10.84375 C 19.34375 -8.09375 18.445312 -5.765625 17.40625 -3.859375 C 16.375 -1.960938 15.03125 -0.429688 13.375 0.734375 C 13.070312 3.859375 12.644531 6.484375 12.09375 8.609375 C 11.539062 10.734375 10.878906 12.367188 10.109375 13.515625 C 9.335938 14.703125 8.421875 15.601562 7.359375 16.21875 C 6.304688 16.84375 5.21875 17.160156 4.09375 17.171875 C 2.976562 17.179688 1.941406 16.890625 0.984375 16.296875 C 0.0234375 15.703125 -0.722656 14.796875 -1.265625 13.578125 Z M 4.375 -1.75 C 4.726562 -1.75 5.125 -2 5.5625 -2.5 C 6.007812 -3 6.484375 -3.65625 6.984375 -4.46875 C 7.484375 -5.289062 7.972656 -6.203125 8.453125 -7.203125 C 8.929688 -8.210938 9.378906 -9.21875 9.796875 -10.21875 C 9.515625 -11.03125 9.070312 -11.757812 8.46875 -12.40625 C 7.863281 -13.050781 7.175781 -13.375 6.40625 -13.375 C 6.007812 -13.375 5.632812 -13.09375 5.28125 -12.53125 C 4.9375 -11.96875 4.632812 -11.242188 4.375 -10.359375 C 4.113281 -9.472656 3.90625 -8.539062 3.75 -7.5625 C 3.601562 -6.582031 3.519531 -5.648438 3.5 -4.765625 C 3.476562 -3.878906 3.535156 -3.15625 3.671875 -2.59375 C 3.816406 -2.03125 4.050781 -1.75 4.375 -1.75 Z M 0.03125 13.0625 C 0.875 14.625 1.828125 15.320312 2.890625 15.15625 C 3.953125 14.988281 5.039062 14.066406 6.15625 12.390625 C 7.300781 10.710938 8.175781 7.738281 8.78125 3.46875 C 7.40625 4.03125 6.085938 4.664062 4.828125 5.375 C 3.566406 6.082031 2.476562 6.847656 1.5625 7.671875 C 0.65625 8.503906 0.046875 9.375 -0.265625 10.28125 C -0.578125 11.195312 -0.476562 12.125 0.03125 13.0625 Z M 0.03125 13.0625 "/></g></g></g><g fill="#000000" fill-opacity="1"><g transform="translate(214.001818, 199.124987)"><g><path d="M 12.21875 9.421875 C 11.425781 9.421875 10.804688 9.15625 10.359375 8.625 C 9.910156 8.101562 9.585938 7.40625 9.390625 6.53125 C 9.191406 5.65625 9.09375 4.664062 9.09375 3.5625 C 9.09375 2.46875 9.15625 1.363281 9.28125 0.25 C 9.550781 -3.019531 9.773438 -5.640625 9.953125 -7.609375 C 10.128906 -9.578125 10.175781 -11 10.09375 -11.875 C 10.007812 -12.75 9.703125 -13.1875 9.171875 -13.1875 C 8.773438 -13.1875 8.363281 -12.851562 7.9375 -12.1875 C 7.519531 -11.53125 7.113281 -10.671875 6.71875 -9.609375 C 6.320312 -8.546875 5.945312 -7.414062 5.59375 -6.21875 C 5.25 -5.03125 4.9375 -3.910156 4.65625 -2.859375 C 4.375 -1.816406 4.140625 -0.96875 3.953125 -0.3125 C 3.859375 0.0078125 3.59375 0.242188 3.15625 0.390625 C 2.726562 0.546875 2.242188 0.613281 1.703125 0.59375 C 1.171875 0.570312 0.710938 0.46875 0.328125 0.28125 C -0.0546875 0.09375 -0.234375 -0.175781 -0.203125 -0.53125 L 0.03125 -11.03125 C 0.03125 -11.394531 0.238281 -11.6875 0.65625 -11.90625 C 1.082031 -12.132812 1.570312 -12.257812 2.125 -12.28125 C 2.6875 -12.300781 3.175781 -12.207031 3.59375 -12 C 4.019531 -11.789062 4.234375 -11.453125 4.234375 -10.984375 L 4.125 -6.46875 C 4.5 -7.59375 4.878906 -8.679688 5.265625 -9.734375 C 5.648438 -10.785156 6.085938 -11.71875 6.578125 -12.53125 C 7.066406 -13.34375 7.648438 -13.988281 8.328125 -14.46875 C 9.003906 -14.945312 9.8125 -15.1875 10.75 -15.1875 C 11.820312 -15.1875 12.625 -14.863281 13.15625 -14.21875 C 13.695312 -13.582031 14.035156 -12.722656 14.171875 -11.640625 C 14.316406 -10.554688 14.347656 -9.351562 14.265625 -8.03125 C 14.179688 -6.71875 14.070312 -5.367188 13.9375 -3.984375 C 13.84375 -2.960938 13.738281 -1.835938 13.625 -0.609375 C 13.519531 0.609375 13.453125 1.769531 13.421875 2.875 C 13.390625 3.988281 13.398438 4.898438 13.453125 5.609375 C 13.515625 6.328125 13.648438 6.6875 13.859375 6.6875 C 14.085938 6.6875 14.378906 6.410156 14.734375 5.859375 C 15.085938 5.316406 15.460938 4.617188 15.859375 3.765625 C 16.253906 2.910156 16.628906 2.023438 16.984375 1.109375 C 17.347656 0.203125 17.648438 -0.609375 17.890625 -1.328125 C 18.046875 -1.816406 18.234375 -2.4375 18.453125 -3.1875 C 18.679688 -3.9375 18.910156 -4.738281 19.140625 -5.59375 C 19.378906 -6.457031 19.601562 -7.296875 19.8125 -8.109375 C 20.019531 -8.929688 20.191406 -9.644531 20.328125 -10.25 C 20.453125 -10.71875 20.5625 -11.085938 20.65625 -11.359375 C 20.75 -11.628906 20.96875 -11.726562 21.3125 -11.65625 C 21.757812 -11.539062 21.960938 -11.363281 21.921875 -11.125 C 21.890625 -10.894531 21.816406 -10.5 21.703125 -9.9375 C 21.328125 -8.375 20.941406 -6.863281 20.546875 -5.40625 C 20.148438 -3.945312 19.707031 -2.445312 19.21875 -0.90625 C 18.769531 0.445312 18.289062 1.738281 17.78125 2.96875 C 17.269531 4.207031 16.722656 5.3125 16.140625 6.28125 C 15.554688 7.25 14.9375 8.015625 14.28125 8.578125 C 13.625 9.140625 12.9375 9.421875 12.21875 9.421875 Z M 12.21875 9.421875 "/></g></g></g><g fill="#000000" fill-opacity="1"><g transform="translate(234.192262, 199.124987)"><g><path d="M 5.953125 -0.03125 C 5.460938 -0.03125 5.046875 -0.164062 4.703125 -0.4375 C 4.367188 -0.707031 4.203125 -1.039062 4.203125 -1.4375 C 4.203125 -1.832031 4.367188 -2.160156 4.703125 -2.421875 C 5.046875 -2.691406 5.460938 -2.828125 5.953125 -2.828125 C 6.421875 -2.828125 6.828125 -2.691406 7.171875 -2.421875 C 7.523438 -2.160156 7.703125 -1.832031 7.703125 -1.4375 C 7.703125 -1.039062 7.523438 -0.707031 7.171875 -0.4375 C 6.828125 -0.164062 6.421875 -0.03125 5.953125 -0.03125 Z M 5.953125 -0.03125 "/></g></g></g><g fill="#000000" fill-opacity="1"><g transform="translate(246.089573, 199.124987)"><g><path d="M 3.640625 12.046875 C 2.265625 12.046875 1.21875 11.644531 0.5 10.84375 C -0.207031 10.050781 -0.5625 8.921875 -0.5625 7.453125 C -0.5625 6.285156 -0.253906 5.144531 0.359375 4.03125 C 0.984375 2.925781 1.796875 1.847656 2.796875 0.796875 C 3.804688 -0.242188 4.90625 -1.222656 6.09375 -2.140625 C 5.039062 -3.117188 4.019531 -4.0625 3.03125 -4.96875 C 2.039062 -5.875 1.222656 -6.796875 0.578125 -7.734375 C -0.0664062 -8.671875 -0.390625 -9.640625 -0.390625 -10.640625 C -0.390625 -12.253906 -0.125 -13.585938 0.40625 -14.640625 C 0.945312 -15.703125 1.640625 -16.507812 2.484375 -17.0625 C 3.328125 -17.613281 4.21875 -17.910156 5.15625 -17.953125 C 6.101562 -18.003906 6.988281 -17.820312 7.8125 -17.40625 C 8.644531 -17 9.316406 -16.363281 9.828125 -15.5 C 10.347656 -14.632812 10.59375 -13.570312 10.5625 -12.3125 C 10.5625 -11.78125 10.519531 -11.410156 10.4375 -11.203125 C 10.363281 -10.992188 10.257812 -10.878906 10.125 -10.859375 C 10 -10.847656 9.832031 -10.84375 9.625 -10.84375 C 9.039062 -10.84375 8.710938 -10.992188 8.640625 -11.296875 C 8.578125 -11.609375 8.53125 -12.019531 8.5 -12.53125 C 8.457031 -13.488281 8.273438 -14.179688 7.953125 -14.609375 C 7.640625 -15.046875 7.265625 -15.273438 6.828125 -15.296875 C 6.398438 -15.316406 5.972656 -15.179688 5.546875 -14.890625 C 5.117188 -14.597656 4.757812 -14.207031 4.46875 -13.71875 C 4.175781 -13.226562 4.03125 -12.679688 4.03125 -12.078125 C 4.03125 -11.210938 4.242188 -10.398438 4.671875 -9.640625 C 5.097656 -8.878906 5.613281 -8.175781 6.21875 -7.53125 C 6.832031 -6.894531 7.425781 -6.332031 8 -5.84375 C 8.570312 -5.351562 9 -4.929688 9.28125 -4.578125 C 10.1875 -5.285156 11.046875 -5.976562 11.859375 -6.65625 C 12.679688 -7.332031 13.398438 -8.039062 14.015625 -8.78125 C 14.628906 -9.53125 15.054688 -10.359375 15.296875 -11.265625 C 15.335938 -11.453125 15.445312 -11.585938 15.625 -11.671875 C 15.800781 -11.753906 15.984375 -11.757812 16.171875 -11.6875 C 16.609375 -11.519531 16.75 -11.21875 16.59375 -10.78125 C 16.070312 -9.425781 15.222656 -8.128906 14.046875 -6.890625 C 12.867188 -5.660156 11.554688 -4.519531 10.109375 -3.46875 C 10.785156 -2.625 11.289062 -1.585938 11.625 -0.359375 C 11.96875 0.859375 12.140625 2.078125 12.140625 3.296875 C 12.140625 4.429688 11.898438 5.523438 11.421875 6.578125 C 10.941406 7.628906 10.300781 8.566406 9.5 9.390625 C 8.695312 10.222656 7.785156 10.875 6.765625 11.34375 C 5.753906 11.8125 4.710938 12.046875 3.640625 12.046875 Z M 2.9375 10.328125 C 3.570312 10.328125 4.1875 10.113281 4.78125 9.6875 C 5.375 9.269531 5.910156 8.722656 6.390625 8.046875 C 6.867188 7.367188 7.242188 6.632812 7.515625 5.84375 C 7.796875 5.050781 7.9375 4.289062 7.9375 3.5625 C 7.9375 2.65625 7.851562 1.832031 7.6875 1.09375 C 7.53125 0.363281 7.253906 -0.328125 6.859375 -0.984375 C 5.765625 -0.117188 4.753906 0.769531 3.828125 1.6875 C 2.910156 2.613281 2.179688 3.566406 1.640625 4.546875 C 1.109375 5.523438 0.84375 6.539062 0.84375 7.59375 C 0.84375 8.550781 1.007812 9.242188 1.34375 9.671875 C 1.6875 10.109375 2.21875 10.328125 2.9375 10.328125 Z M 2.9375 10.328125 "/></g></g></g><g fill="#000000" fill-opacity="1"><g transform="translate(260.996211, 199.124987)"><g><path d="M -3.296875 13.796875 C -2.304688 11.523438 -1.578125 9.015625 -1.109375 6.265625 C -0.648438 3.515625 -0.347656 0.640625 -0.203125 -2.359375 C -0.0664062 -5.359375 0 -8.351562 0 -11.34375 C 0 -11.71875 0.207031 -12.015625 0.625 -12.234375 C 1.050781 -12.453125 1.539062 -12.578125 2.09375 -12.609375 C 2.65625 -12.648438 3.144531 -12.578125 3.5625 -12.390625 C 3.988281 -12.203125 4.203125 -11.875 4.203125 -11.40625 L 4.203125 -7.484375 C 5.085938 -9.796875 6.078125 -11.648438 7.171875 -13.046875 C 8.265625 -14.453125 9.410156 -15.15625 10.609375 -15.15625 C 11.347656 -15.15625 11.976562 -14.9375 12.5 -14.5 C 13.03125 -14.070312 13.476562 -13.519531 13.84375 -12.84375 C 14.207031 -12.164062 14.492188 -11.457031 14.703125 -10.71875 C 14.910156 -9.988281 15.066406 -9.3125 15.171875 -8.6875 C 15.273438 -8.070312 15.335938 -7.613281 15.359375 -7.3125 C 16.390625 -7.757812 17.304688 -8.28125 18.109375 -8.875 C 18.910156 -9.46875 19.441406 -10.253906 19.703125 -11.234375 C 19.753906 -11.421875 19.863281 -11.554688 20.03125 -11.640625 C 20.207031 -11.722656 20.390625 -11.738281 20.578125 -11.6875 C 20.765625 -11.644531 20.898438 -11.535156 20.984375 -11.359375 C 21.066406 -11.179688 21.082031 -11 21.03125 -10.8125 C 20.6875 -9.53125 19.988281 -8.507812 18.9375 -7.75 C 17.882812 -6.988281 16.691406 -6.34375 15.359375 -5.8125 C 15.316406 -4.53125 15.164062 -3.226562 14.90625 -1.90625 C 14.65625 -0.59375 14.300781 0.609375 13.84375 1.703125 C 13.382812 2.804688 12.820312 3.695312 12.15625 4.375 C 11.5 5.050781 10.710938 5.390625 9.796875 5.390625 C 9.003906 5.390625 8.320312 5.171875 7.75 4.734375 C 7.175781 4.304688 6.738281 3.742188 6.4375 3.046875 C 6.132812 2.347656 5.984375 1.585938 5.984375 0.765625 C 5.984375 -1.003906 6.453125 -2.378906 7.390625 -3.359375 C 8.335938 -4.335938 9.597656 -5.128906 11.171875 -5.734375 C 11.171875 -6.441406 11.128906 -7.203125 11.046875 -8.015625 C 10.960938 -8.828125 10.84375 -9.609375 10.6875 -10.359375 C 10.539062 -11.109375 10.335938 -11.722656 10.078125 -12.203125 C 9.816406 -12.679688 9.515625 -12.921875 9.171875 -12.921875 C 8.796875 -12.921875 8.390625 -12.632812 7.953125 -12.0625 C 7.523438 -11.488281 7.082031 -10.742188 6.625 -9.828125 C 6.175781 -8.921875 5.757812 -7.925781 5.375 -6.84375 C 4.988281 -5.757812 4.660156 -4.695312 4.390625 -3.65625 C 4.117188 -2.613281 3.9375 -1.695312 3.84375 -0.90625 C 3.570312 1.1875 3.3125 3.144531 3.0625 4.96875 C 2.8125 6.789062 2.460938 8.378906 2.015625 9.734375 C 1.578125 11.085938 0.941406 12.125 0.109375 12.84375 C -0.710938 13.570312 -1.847656 13.890625 -3.296875 13.796875 Z M 8.40625 3.015625 C 8.75 3.015625 9.066406 2.742188 9.359375 2.203125 C 9.648438 1.671875 9.910156 1.003906 10.140625 0.203125 C 10.378906 -0.585938 10.578125 -1.378906 10.734375 -2.171875 C 10.898438 -2.960938 11.007812 -3.628906 11.0625 -4.171875 C 9.96875 -3.679688 9.0625 -3.039062 8.34375 -2.25 C 7.632812 -1.46875 7.28125 -0.460938 7.28125 0.765625 C 7.28125 1.347656 7.390625 1.867188 7.609375 2.328125 C 7.828125 2.785156 8.09375 3.015625 8.40625 3.015625 Z M 8.40625 3.015625 "/></g></g></g><g fill="#000000" fill-opacity="1"><g transform="translate(280.311846, 199.124987)"><g><path d="M 10.328125 5.3125 C 9.503906 5.3125 8.890625 5.023438 8.484375 4.453125 C 8.078125 3.890625 7.828125 3.125 7.734375 2.15625 C 7.640625 1.1875 7.648438 0.101562 7.765625 -1.09375 C 7.878906 -2.300781 8.054688 -3.546875 8.296875 -4.828125 C 7.828125 -4.015625 7.273438 -3.203125 6.640625 -2.390625 C 6.015625 -1.585938 5.304688 -0.921875 4.515625 -0.390625 C 3.722656 0.128906 2.820312 0.390625 1.8125 0.390625 C 0.976562 0.390625 0.296875 0.113281 -0.234375 -0.4375 C -0.773438 -0.988281 -1.160156 -1.710938 -1.390625 -2.609375 C -1.628906 -3.503906 -1.722656 -4.492188 -1.671875 -5.578125 C -1.628906 -6.660156 -1.460938 -7.75 -1.171875 -8.84375 C -0.878906 -9.945312 -0.46875 -10.957031 0.0625 -11.875 C 0.601562 -12.800781 1.253906 -13.5625 2.015625 -14.15625 C 2.773438 -14.75 3.628906 -15.070312 4.578125 -15.125 C 6.054688 -15.21875 7.210938 -14.972656 8.046875 -14.390625 C 8.890625 -13.804688 9.519531 -13.054688 9.9375 -12.140625 C 10.082031 -12.515625 10.21875 -12.867188 10.34375 -13.203125 C 10.46875 -13.546875 10.578125 -13.867188 10.671875 -14.171875 C 10.765625 -14.503906 11.039062 -14.710938 11.5 -14.796875 C 11.957031 -14.890625 12.457031 -14.894531 13 -14.8125 C 13.550781 -14.738281 14.003906 -14.609375 14.359375 -14.421875 C 14.722656 -14.234375 14.859375 -14.007812 14.765625 -13.75 C 14.609375 -13.238281 14.390625 -12.46875 14.109375 -11.4375 C 13.828125 -10.414062 13.535156 -9.273438 13.234375 -8.015625 C 12.929688 -6.753906 12.632812 -5.472656 12.34375 -4.171875 C 12.050781 -2.878906 11.796875 -1.6875 11.578125 -0.59375 C 11.367188 0.5 11.222656 1.382812 11.140625 2.0625 C 11.066406 2.738281 11.085938 3.078125 11.203125 3.078125 C 11.671875 3.078125 12.34375 2.707031 13.21875 1.96875 C 14.09375 1.238281 15.046875 0.222656 16.078125 -1.078125 C 17.117188 -2.390625 18.125 -3.90625 19.09375 -5.625 C 20.0625 -7.351562 20.882812 -9.222656 21.5625 -11.234375 C 21.675781 -11.585938 21.859375 -11.769531 22.109375 -11.78125 C 22.367188 -11.789062 22.59375 -11.703125 22.78125 -11.515625 C 22.96875 -11.328125 23.015625 -11.09375 22.921875 -10.8125 C 22.546875 -9.625 22.007812 -8.3125 21.3125 -6.875 C 20.613281 -5.4375 19.8125 -4 18.90625 -2.5625 C 18.007812 -1.132812 17.054688 0.171875 16.046875 1.359375 C 15.035156 2.554688 14.035156 3.515625 13.046875 4.234375 C 12.066406 4.953125 11.160156 5.3125 10.328125 5.3125 Z M 3.75 -1.75 C 4.09375 -1.75 4.484375 -2 4.921875 -2.5 C 5.367188 -3 5.84375 -3.65625 6.34375 -4.46875 C 6.851562 -5.289062 7.347656 -6.203125 7.828125 -7.203125 C 8.304688 -8.210938 8.753906 -9.21875 9.171875 -10.21875 C 8.890625 -11.03125 8.445312 -11.757812 7.84375 -12.40625 C 7.238281 -13.050781 6.550781 -13.375 5.78125 -13.375 C 5.382812 -13.375 5.007812 -13.09375 4.65625 -12.53125 C 4.300781 -11.96875 3.992188 -11.242188 3.734375 -10.359375 C 3.484375 -9.472656 3.28125 -8.539062 3.125 -7.5625 C 2.976562 -6.582031 2.890625 -5.648438 2.859375 -4.765625 C 2.835938 -3.878906 2.894531 -3.15625 3.03125 -2.59375 C 3.175781 -2.03125 3.414062 -1.75 3.75 -1.75 Z M 3.75 -1.75 "/></g></g></g><g fill="#000000" fill-opacity="1"><g transform="translate(301.51706, 199.124987)"><g><path d="M 2.234375 3.8125 C 1.253906 3.8125 0.460938 3.488281 -0.140625 2.84375 C -0.742188 2.207031 -1.171875 1.359375 -1.421875 0.296875 C -1.679688 -0.765625 -1.800781 -1.9375 -1.78125 -3.21875 C -1.757812 -4.5 -1.601562 -5.773438 -1.3125 -7.046875 C -1.019531 -8.316406 -0.625 -9.484375 -0.125 -10.546875 C 0.375 -11.609375 0.960938 -12.457031 1.640625 -13.09375 C 2.316406 -13.738281 3.066406 -14.0625 3.890625 -14.0625 C 4.835938 -14.0625 5.601562 -13.757812 6.1875 -13.15625 C 6.769531 -12.550781 7.148438 -11.8125 7.328125 -10.9375 C 7.503906 -10.0625 7.476562 -9.191406 7.25 -8.328125 C 7.125 -7.890625 6.84375 -7.726562 6.40625 -7.84375 C 6.21875 -7.882812 6.070312 -7.988281 5.96875 -8.15625 C 5.863281 -8.320312 5.832031 -8.5 5.875 -8.6875 C 6 -9.101562 6.046875 -9.550781 6.015625 -10.03125 C 5.992188 -10.507812 5.925781 -10.910156 5.8125 -11.234375 C 5.695312 -11.554688 5.519531 -11.71875 5.28125 -11.71875 C 4.957031 -11.71875 4.609375 -11.394531 4.234375 -10.75 C 3.859375 -10.113281 3.515625 -9.285156 3.203125 -8.265625 C 2.890625 -7.253906 2.625 -6.179688 2.40625 -5.046875 C 2.195312 -3.921875 2.082031 -2.847656 2.0625 -1.828125 C 2.039062 -0.816406 2.144531 0.00390625 2.375 0.640625 C 2.613281 1.285156 3.007812 1.609375 3.5625 1.609375 C 4.0625 1.609375 4.617188 1.285156 5.234375 0.640625 C 5.847656 0.00390625 6.484375 -0.820312 7.140625 -1.84375 C 7.796875 -2.875 8.425781 -3.976562 9.03125 -5.15625 C 9.632812 -6.34375 10.175781 -7.476562 10.65625 -8.5625 C 11.132812 -9.644531 11.503906 -10.546875 11.765625 -11.265625 C 11.921875 -11.710938 12.222656 -11.851562 12.671875 -11.6875 C 13.109375 -11.519531 13.25 -11.21875 13.09375 -10.78125 C 12.644531 -9.539062 12.117188 -8.242188 11.515625 -6.890625 C 10.910156 -5.535156 10.238281 -4.222656 9.5 -2.953125 C 8.769531 -1.679688 7.992188 -0.539062 7.171875 0.46875 C 6.359375 1.488281 5.535156 2.300781 4.703125 2.90625 C 3.878906 3.507812 3.054688 3.8125 2.234375 3.8125 Z M 2.234375 3.8125 "/></g></g></g><g fill="#000000" fill-opacity="1"><g transform="translate(312.889488, 199.124987)"><g><path d="M 3.5625 4.65625 C 2.582031 4.65625 1.800781 4.378906 1.21875 3.828125 C 0.632812 3.285156 0.191406 2.5625 -0.109375 1.65625 C -0.410156 0.757812 -0.613281 -0.222656 -0.71875 -1.296875 C -0.820312 -2.367188 -0.875 -3.441406 -0.875 -4.515625 C -0.875 -5.585938 -0.875 -6.554688 -0.875 -7.421875 C -0.875 -8.816406 -0.632812 -10.125 -0.15625 -11.34375 C 0.320312 -12.570312 1.003906 -13.5625 1.890625 -14.3125 C 2.773438 -15.0625 3.828125 -15.4375 5.046875 -15.4375 C 6.210938 -15.4375 7.015625 -15.210938 7.453125 -14.765625 C 7.898438 -14.328125 8.078125 -13.75 7.984375 -13.03125 C 7.890625 -12.320312 7.625 -11.578125 7.1875 -10.796875 C 6.757812 -10.015625 6.25 -9.265625 5.65625 -8.546875 C 5.0625 -7.835938 4.476562 -7.257812 3.90625 -6.8125 C 3.332031 -6.375 2.859375 -6.15625 2.484375 -6.15625 C 2.484375 -5.59375 2.476562 -4.910156 2.46875 -4.109375 C 2.457031 -3.304688 2.460938 -2.476562 2.484375 -1.625 C 2.503906 -0.769531 2.554688 0.0234375 2.640625 0.765625 C 2.722656 1.515625 2.863281 2.125 3.0625 2.59375 C 3.257812 3.0625 3.519531 3.296875 3.84375 3.296875 C 4.3125 3.296875 4.875 2.945312 5.53125 2.25 C 6.1875 1.5625 6.882812 0.601562 7.625 -0.625 C 8.375 -1.863281 9.113281 -3.328125 9.84375 -5.015625 C 10.582031 -6.710938 11.269531 -8.550781 11.90625 -10.53125 C 12.039062 -10.957031 12.160156 -11.285156 12.265625 -11.515625 C 12.367188 -11.742188 12.609375 -11.800781 12.984375 -11.6875 C 13.378906 -11.59375 13.546875 -11.394531 13.484375 -11.09375 C 13.429688 -10.789062 13.347656 -10.460938 13.234375 -10.109375 C 12.128906 -6.867188 10.976562 -4.148438 9.78125 -1.953125 C 8.582031 0.234375 7.4375 1.878906 6.34375 2.984375 C 5.257812 4.097656 4.332031 4.65625 3.5625 4.65625 Z M 2.59375 -7.421875 C 2.96875 -7.460938 3.390625 -7.6875 3.859375 -8.09375 C 4.335938 -8.507812 4.800781 -9.007812 5.25 -9.59375 C 5.695312 -10.175781 6.066406 -10.753906 6.359375 -11.328125 C 6.648438 -11.898438 6.796875 -12.375 6.796875 -12.75 C 6.796875 -13.132812 6.570312 -13.328125 6.125 -13.328125 C 5.988281 -13.328125 5.753906 -13.25 5.421875 -13.09375 C 5.097656 -12.945312 4.742188 -12.664062 4.359375 -12.25 C 3.972656 -11.832031 3.613281 -11.238281 3.28125 -10.46875 C 2.957031 -9.695312 2.726562 -8.679688 2.59375 -7.421875 Z M 2.59375 -7.421875 "/></g></g></g></svg>