<svg xmlns="http://www.w3.org/2000/svg" xmlns:xlink="http://www.w3.org/1999/xlink" width="500" zoomAndPan="magnify" viewBox="0 0 375 374.999991" height="500" preserveAspectRatio="xMidYMid meet" version="1.0"><defs><clipPath id="f1dc4cb889"><path d="M 151 112.5 L 225 112.5 L 225 214 L 151 214 Z M 151 112.5 " clip-rule="nonzero"/></clipPath><clipPath id="1a43a693f4"><path d="M 145.5 222 L 185 222 L 185 261 L 145.5 261 Z M 145.5 222 " clip-rule="nonzero"/></clipPath><clipPath id="456d0f297e"><path d="M 174 203 L 229.5 203 L 229.5 260 L 174 260 Z M 174 203 " clip-rule="nonzero"/></clipPath></defs><g clip-path="url(#f1dc4cb889)"><path fill="#a49786" d="M 218.863281 197.0625 C 214.894531 192.789062 210.230469 189.4375 206.023438 186.601562 C 199.390625 182.257812 188.640625 176.769531 179.949219 170.59375 C 171.03125 163.960938 164.171875 155.957031 164.398438 142.691406 C 164.628906 129.199219 173.546875 117.074219 190.472656 117.074219 C 198.019531 117.074219 203.277344 118.222656 208.082031 120.964844 C 213.570312 124.167969 216.085938 129.199219 217 144.980469 C 217.457031 145.4375 220.429688 145.4375 220.890625 144.75 C 221.804688 134 223.40625 123.253906 224.777344 115.933594 C 215.628906 115.019531 206.9375 112.5 193.671875 112.5 C 169.886719 112.5 151.363281 126.90625 151.363281 149.78125 C 151.363281 168.992188 165.542969 180.882812 182.691406 191.402344 C 195.605469 199.328125 204.726562 205.65625 209.625 213.460938 C 210.96875 207.347656 214.046875 201.195312 218.863281 197.0625 Z M 218.863281 197.0625 " fill-opacity="1" fill-rule="nonzero"/></g><g clip-path="url(#1a43a693f4)"><path fill="#a49786" d="M 179.988281 257.132812 C 172.152344 255.414062 165.445312 251.660156 163.355469 250.15625 C 156.265625 245.582031 152.847656 236.230469 149.1875 222.277344 C 148.730469 221.816406 145.984375 222.277344 145.527344 223.191406 C 145.984375 229.824219 148.273438 250.863281 150.558594 254.066406 C 155.015625 257.035156 167.792969 262.492188 184.027344 259.722656 C 181.589844 257.527344 182.070312 259.832031 179.988281 257.132812 Z M 179.988281 257.132812 " fill-opacity="1" fill-rule="nonzero"/></g><g clip-path="url(#456d0f297e)"><path fill="#a49786" d="M 219.519531 235.71875 L 220.585938 232.394531 C 220.863281 231.15625 220.976562 229.917969 220.996094 228.683594 C 221.015625 227.449219 221.292969 226.257812 221.511719 225.074219 C 221.539062 224.933594 221.660156 224.8125 221.730469 224.679688 C 221.734375 224.601562 221.769531 224.539062 221.839844 224.492188 C 221.867188 224.253906 221.964844 224.042969 222.121094 223.851562 L 222.371094 223.203125 L 223.441406 220.523438 C 223.5 220.390625 223.613281 220.277344 223.699219 220.15625 C 223.59375 220.011719 223.648438 219.886719 223.746094 219.765625 L 224.503906 217.460938 C 225.273438 215.398438 225.152344 213.203125 224.554688 211.105469 C 224.34375 210.367188 224.03125 209.675781 223.582031 209.066406 C 222.886719 208.125 222.417969 207.074219 221.90625 206.050781 L 220.6875 203.589844 C 220.609375 203.433594 220.472656 203.296875 220.34375 203.179688 C 220.265625 203.105469 220.140625 203.105469 220.039062 203.1875 C 219.828125 203.359375 219.75 203.605469 219.648438 203.84375 C 219.09375 205.160156 218.769531 206.535156 218.46875 207.925781 C 218.289062 208.742188 218.148438 209.570312 218.03125 210.40625 C 217.777344 212.644531 217.824219 214.726562 217.886719 216.910156 C 217.90625 217.546875 218.09375 218.136719 218.308594 218.726562 C 218.925781 220.523438 219.789062 222.425781 220.140625 224.28125 C 220.160156 224.390625 220.15625 224.515625 220.214844 224.601562 C 220.714844 225.335938 220.566406 226.148438 220.449219 226.984375 C 220.371094 227.578125 220.304688 228.191406 220.488281 228.800781 C 220.597656 229.171875 220.523438 229.566406 220.476562 229.953125 C 220.3125 232.378906 219.367188 234.523438 218.453125 236.765625 C 217.910156 238.035156 217.402344 239.351562 216.644531 240.511719 C 216.484375 240.785156 216.277344 241.03125 216.089844 241.289062 C 216.117188 241.429688 216.0625 241.542969 215.941406 241.628906 C 215.664062 242.339844 215.183594 242.941406 214.757812 243.574219 C 214.050781 244.75 213.136719 245.757812 212.21875 246.785156 C 211.289062 247.792969 210.429688 248.894531 209.410156 249.835938 C 209.074219 250.128906 208.695312 250.378906 208.335938 250.652344 L 207.019531 251.714844 C 206.933594 251.78125 206.804688 251.816406 206.75 251.695312 C 206.726562 251.640625 206.753906 251.527344 206.796875 251.480469 L 208.1875 250.011719 C 209.039062 248.886719 209.628906 247.542969 210.300781 246.308594 C 210.847656 245.296875 211.238281 244.257812 211.421875 243.21875 C 211.671875 241.203125 212.125 239.246094 212.558594 237.410156 C 212.84375 236.328125 213.050781 235.164062 213.179688 233.984375 C 213.234375 233.515625 213.296875 233.035156 213.246094 232.574219 C 213.070312 231.082031 213.523438 229.78125 213.734375 228.402344 C 213.761719 228.121094 213.984375 227.996094 214.125 227.800781 C 214.648438 227.085938 214.871094 226.269531 214.667969 225.359375 C 214.570312 224.921875 214.300781 224.652344 213.898438 224.488281 C 213.234375 224.214844 212.570312 224.25 211.980469 224.503906 C 211.277344 224.8125 211.148438 225.457031 211.226562 226.167969 C 211.3125 226.890625 211.523438 227.59375 211.902344 228.195312 L 212.269531 228.425781 L 212.828125 228.460938 C 213.050781 228.46875 213.195312 228.5625 213.15625 228.773438 C 213.097656 229.144531 213.058594 229.527344 212.925781 229.878906 C 212.664062 230.574219 212.621094 231.304688 212.640625 232.058594 C 212.664062 233.140625 212.515625 234.226562 212.34375 235.324219 C 212.023438 236.671875 211.703125 238.023438 211.382812 239.382812 C 211.074219 240.777344 210.871094 242.28125 210.550781 243.652344 C 210.390625 244.480469 210.066406 245.304688 209.628906 246.09375 C 209.285156 246.703125 208.992188 247.347656 208.679688 247.996094 C 208.332031 248.601562 207.933594 249.167969 207.488281 249.730469 C 206.363281 251.042969 205.339844 252.601562 203.925781 253.695312 C 203.152344 254.371094 202.164062 254.796875 201.238281 255.25 C 199.445312 256.007812 197.570312 256.589844 195.722656 257.117188 C 193.058594 257.542969 190.453125 258.265625 187.753906 258.460938 C 186.410156 258.558594 185.058594 258.5625 183.714844 258.46875 C 183.042969 258.421875 182.371094 258.351562 181.703125 258.257812 C 181.371094 258.210938 181.039062 258.15625 180.707031 258.097656 C 180.460938 258.054688 180.035156 257.875 179.796875 257.921875 C 182.601562 257.410156 185.476562 257.023438 188.214844 256.230469 C 190.625 255.53125 192.992188 254.621094 194.976562 253.25 C 195.144531 253.109375 195.363281 253.027344 195.554688 252.917969 C 195.597656 252.792969 195.691406 252.734375 195.808594 252.710938 L 197.234375 252.097656 C 198.632812 251.609375 199.789062 250.660156 201.015625 249.894531 C 202.675781 249.011719 203.882812 247.53125 205.097656 246.1875 C 205.425781 245.824219 205.71875 245.449219 205.984375 245.0625 C 206.21875 244.636719 206.414062 244.171875 206.589844 243.71875 C 206.941406 242.808594 207.203125 241.882812 207.417969 240.972656 C 207.496094 240.640625 207.480469 240.28125 207.457031 239.9375 C 207.390625 238.515625 207.320312 236.914062 207.566406 235.542969 C 207.734375 234.480469 207.683594 233.40625 207.929688 232.433594 C 207.949219 232.296875 207.929688 232.140625 207.785156 232.046875 C 207.589844 231.910156 207.457031 232.035156 207.3125 232.101562 C 207.226562 232.140625 207.164062 232.210938 207.097656 232.277344 L 206.121094 233.261719 L 205.535156 233.847656 C 205.515625 233.992188 205.441406 234.089844 205.296875 234.128906 C 204.648438 234.789062 204.105469 235.644531 203.398438 236.160156 C 202.910156 236.574219 202.554688 237.089844 202.207031 237.636719 C 201.824219 238.21875 201.519531 238.917969 201.175781 239.523438 C 200.808594 240.089844 200.457031 240.695312 200.097656 241.324219 C 199.625 242.070312 199.429688 243.152344 199.0625 243.988281 C 198.78125 244.722656 198.460938 245.46875 198.058594 246.199219 C 197.816406 246.636719 197.5625 247.105469 197.4375 247.628906 C 197.15625 248.722656 196.449219 249.480469 195.828125 250.402344 C 195.421875 250.988281 194.945312 251.539062 194.5625 252.191406 C 194.039062 252.953125 193.253906 253.429688 192.410156 253.847656 C 191.183594 254.503906 189.886719 255.015625 188.53125 255.421875 C 187.449219 255.804688 186.273438 256.042969 185.136719 256.226562 C 184.035156 256.402344 182.949219 256.726562 181.84375 256.953125 C 179.484375 257.4375 177.085938 257.71875 174.679688 257.792969 C 174.65625 258.078125 174.636719 258.363281 174.617188 258.644531 C 174.59375 258.964844 182.445312 259.644531 183.171875 259.6875 C 186.070312 259.871094 188.980469 259.882812 191.878906 259.722656 C 192.953125 259.664062 194.027344 259.511719 195.101562 259.546875 C 196.703125 259.648438 198.265625 259.257812 199.878906 259 C 200.355469 258.925781 200.839844 258.882812 201.324219 258.863281 C 202 258.855469 202.640625 258.796875 203.285156 258.535156 C 204.167969 258.199219 205.019531 258.347656 205.878906 258.425781 C 206.519531 258.488281 207.144531 258.632812 207.78125 258.746094 C 208.929688 258.988281 210.054688 258.808594 211.21875 258.644531 C 213.800781 258.28125 216.597656 257.476562 218.824219 255.652344 C 220.757812 254.199219 222.574219 252.515625 223.78125 250.523438 L 225.5625 247.714844 C 226.671875 246.105469 227.546875 244.492188 228.625 242.96875 C 228.867188 242.628906 229.125 242.292969 229.179688 241.867188 C 229.214844 241.597656 229.046875 241.355469 228.804688 241.378906 C 228.648438 241.394531 228.488281 241.421875 228.328125 241.472656 C 227.328125 241.785156 226.359375 242.164062 225.445312 242.734375 C 224.226562 243.542969 222.863281 244.265625 221.464844 244.898438 C 219.839844 245.660156 218.429688 246.664062 217.097656 247.859375 C 215.394531 249.089844 213.878906 250.488281 212.328125 251.847656 C 212.132812 252.023438 211.921875 252.183594 211.6875 252.316406 C 211.167969 252.660156 210.769531 253.1875 210.132812 253.363281 C 209.199219 254.117188 208.210938 254.800781 207.164062 255.363281 C 207.136719 255.523438 207.042969 255.636719 206.875 255.675781 L 202.898438 257.871094 C 202.648438 258.011719 202.402344 258.046875 202.15625 258.074219 C 200.484375 258.132812 198.867188 258.519531 197.277344 258.8125 C 195.714844 259.058594 194.125 259.015625 192.617188 258.925781 C 191.980469 259.113281 191.355469 259.050781 190.523438 258.902344 C 191.316406 258.574219 191.941406 258.644531 192.550781 258.546875 C 193.527344 258.351562 194.5 258.121094 195.492188 257.972656 C 196.785156 257.816406 198 257.308594 199.25 256.929688 L 201.101562 256.273438 L 202.847656 255.359375 L 205.410156 253.960938 C 206.257812 253.480469 206.976562 252.820312 207.742188 252.226562 C 208.671875 251.4375 209.664062 250.722656 210.503906 249.855469 C 211.0625 249.210938 211.730469 248.734375 212.394531 248.238281 C 213.695312 247.214844 215.136719 246.269531 216.273438 245.085938 C 217.839844 243.554688 219.519531 242.007812 220.800781 240.214844 L 223.480469 236.585938 C 223.578125 236.453125 223.707031 236.339844 223.820312 236.214844 L 224.265625 235.601562 C 224.554688 235.183594 224.84375 234.765625 225.066406 234.324219 C 225.121094 234.066406 225.238281 233.847656 225.421875 233.667969 L 227.035156 229.894531 C 227.183594 229.535156 227.351562 229.214844 227.71875 229.074219 C 228.253906 228.871094 228.542969 228.410156 228.789062 227.925781 C 229 227.519531 229.207031 227.097656 229.285156 226.652344 C 229.492188 225.671875 229.398438 224.761719 228.671875 224.101562 C 228.195312 223.667969 227.765625 223.667969 227.230469 224.03125 C 226.480469 224.53125 226.1875 225.300781 226.09375 226.164062 C 225.992188 226.921875 226.082031 227.660156 226.59375 228.234375 C 226.800781 228.460938 226.738281 228.679688 226.675781 228.976562 C 226.375 230.480469 225.660156 231.84375 224.929688 233.164062 C 224.246094 234.546875 223.273438 235.792969 222.390625 237.074219 L 219.726562 240.90625 C 218.335938 242.523438 216.84375 244.0625 215.296875 245.472656 C 215.179688 245.582031 215.035156 245.65625 214.902344 245.746094 C 214.734375 245.921875 214.53125 246.070312 214.339844 246.222656 C 214.140625 246.367188 213.972656 246.605469 213.578125 246.601562 C 213.804688 246.0625 214.210938 245.765625 214.464844 245.371094 C 214.414062 245.253906 214.378906 245.128906 214.5625 245.054688 C 215.550781 243.75 216.371094 242.34375 217.160156 240.957031 C 218.019531 239.613281 218.535156 238.066406 219.164062 236.617188 C 219.289062 236.308594 219.421875 236.019531 219.519531 235.71875 " fill-opacity="1" fill-rule="nonzero"/></g></svg>