<svg xmlns="http://www.w3.org/2000/svg" xmlns:xlink="http://www.w3.org/1999/xlink" width="500" zoomAndPan="magnify" viewBox="0 0 375 374.999991" height="500" preserveAspectRatio="xMidYMid meet" version="1.0"><defs><clipPath id="0247826dfd"><path d="M 74.4375 37.5 L 300.9375 37.5 L 300.9375 337.5 L 74.4375 337.5 Z M 74.4375 37.5 " clip-rule="nonzero"/></clipPath></defs><g clip-path="url(#0247826dfd)"><path fill="#000000" d="M 222.59375 112.480469 L 222.59375 77.566406 L 152.40625 77.566406 L 152.40625 149.113281 L 222.164062 149.113281 L 222.164062 188.109375 L 300.4375 188.109375 L 300.4375 299.363281 L 261.585938 299.363281 L 261.585938 337.5 L 113.984375 337.5 L 113.984375 298.863281 L 74.5625 298.863281 L 74.5625 223.953125 L 152.40625 223.953125 L 152.40625 259.585938 L 222.59375 259.585938 L 222.59375 228.175781 L 186.964844 228.175781 L 186.964844 189.253906 L 74.5625 189.253906 L 74.5625 76.492188 L 115.488281 76.492188 L 115.488281 37.5 L 300.4375 37.5 L 300.4375 112.480469 Z M 222.59375 112.480469 " fill-opacity="1" fill-rule="evenodd"/></g><path fill="#9b59b6" d="M 223.738281 111.335938 L 299.292969 111.335938 L 299.292969 38.644531 L 263.089844 38.644531 L 263.089844 77.566406 L 223.738281 77.566406 Z M 75.707031 297.71875 L 113.914062 297.71875 L 113.914062 259.585938 L 151.191406 259.585938 L 151.191406 225.097656 L 75.707031 225.097656 Z M 102.035156 271.390625 C 105.613281 273.035156 108.117188 276.683594 108.117188 280.90625 C 108.117188 286.628906 103.46875 291.351562 97.671875 291.351562 C 96.382812 291.351562 95.097656 291.066406 93.953125 290.636719 C 88.226562 290.207031 83.648438 285.484375 83.648438 279.617188 C 83.648438 273.609375 88.585938 268.597656 94.667969 268.597656 C 97.527344 268.671875 100.105469 269.746094 102.035156 271.390625 Z M 139.8125 235.113281 C 143.390625 236.761719 145.894531 240.410156 145.894531 244.632812 C 145.894531 250.355469 141.246094 255.078125 135.449219 255.078125 C 134.160156 255.078125 132.875 254.789062 131.726562 254.363281 C 126.003906 253.933594 121.425781 249.210938 121.425781 243.34375 C 121.425781 237.332031 126.363281 232.324219 132.445312 232.324219 C 135.304688 232.324219 137.882812 233.398438 139.8125 235.113281 Z M 132.515625 232.96875 C 138.238281 232.96875 142.960938 237.621094 142.960938 243.34375 C 142.960938 249.136719 138.238281 253.789062 132.515625 253.789062 C 126.792969 253.789062 122.070312 249.136719 122.070312 243.34375 C 122.070312 237.621094 126.71875 232.96875 132.515625 232.96875 Z M 102.035156 235.113281 C 105.613281 236.761719 108.117188 240.410156 108.117188 244.632812 C 108.117188 250.355469 103.46875 255.078125 97.671875 255.078125 C 96.382812 255.078125 95.097656 254.789062 93.953125 254.363281 C 88.226562 253.933594 83.648438 249.210938 83.648438 243.34375 C 83.648438 237.332031 88.585938 232.324219 94.667969 232.324219 C 97.527344 232.324219 100.105469 233.398438 102.035156 235.113281 Z M 94.738281 232.96875 C 100.460938 232.96875 105.183594 237.621094 105.183594 243.34375 C 105.183594 249.136719 100.460938 253.789062 94.738281 253.789062 C 89.015625 253.789062 84.292969 249.136719 84.292969 243.34375 C 84.292969 237.621094 88.941406 232.96875 94.738281 232.96875 Z M 94.738281 269.242188 C 100.460938 269.242188 105.183594 273.894531 105.183594 279.617188 C 105.183594 285.414062 100.460938 290.0625 94.738281 290.0625 C 89.015625 290.0625 84.292969 285.414062 84.292969 279.617188 C 84.292969 273.894531 88.941406 269.242188 94.738281 269.242188 Z M 250.070312 85.007812 C 253.644531 86.652344 256.148438 90.300781 256.148438 94.453125 C 256.148438 100.246094 251.5 104.898438 245.703125 104.898438 C 244.417969 104.898438 243.128906 104.683594 241.984375 104.183594 C 236.261719 103.753906 231.679688 99.03125 231.679688 93.164062 C 231.679688 87.082031 236.617188 82.144531 242.699219 82.144531 C 245.5625 82.21875 248.066406 83.289062 250.070312 85.007812 Z M 287.847656 48.734375 C 291.421875 50.378906 293.925781 54.027344 293.925781 58.175781 C 293.925781 63.972656 289.277344 68.625 283.480469 68.625 C 282.195312 68.625 280.90625 68.410156 279.761719 67.90625 C 274.035156 67.480469 269.457031 62.757812 269.457031 56.890625 C 269.457031 50.808594 274.394531 45.871094 280.476562 45.871094 C 283.339844 45.941406 285.84375 46.945312 287.847656 48.734375 Z M 280.546875 46.515625 C 286.273438 46.515625 290.992188 51.238281 290.992188 56.960938 C 290.992188 62.683594 286.273438 67.40625 280.546875 67.40625 C 274.824219 67.40625 270.101562 62.683594 270.101562 56.960938 C 270.101562 51.238281 274.753906 46.515625 280.546875 46.515625 Z M 287.847656 85.007812 C 291.421875 86.652344 293.925781 90.300781 293.925781 94.453125 C 293.925781 100.246094 289.277344 104.898438 283.480469 104.898438 C 282.195312 104.898438 280.90625 104.683594 279.761719 104.183594 C 274.035156 103.753906 269.457031 99.03125 269.457031 93.164062 C 269.457031 87.082031 274.394531 82.144531 280.476562 82.144531 C 283.339844 82.21875 285.84375 83.289062 287.847656 85.007812 Z M 280.546875 82.859375 C 286.273438 82.859375 290.992188 87.582031 290.992188 93.308594 C 290.992188 99.03125 286.273438 103.753906 280.546875 103.753906 C 274.824219 103.753906 270.101562 99.03125 270.101562 93.308594 C 270.03125 87.511719 274.753906 82.859375 280.546875 82.859375 Z M 242.769531 82.859375 C 248.496094 82.859375 253.214844 87.582031 253.214844 93.308594 C 253.214844 99.03125 248.496094 103.753906 242.769531 103.753906 C 237.046875 103.753906 232.324219 99.03125 232.324219 93.308594 C 232.253906 87.511719 236.976562 82.859375 242.769531 82.859375 Z M 242.769531 82.859375 " fill-opacity="1" fill-rule="evenodd"/><path fill="#1abc9c" d="M 261.945312 38.644531 L 261.945312 76.421875 L 116.632812 76.421875 L 116.632812 38.644531 Z M 260.441406 260.800781 L 260.441406 336.355469 L 115.128906 336.355469 L 115.128906 260.800781 Z M 161.421875 287.128906 C 163.066406 290.707031 166.714844 293.210938 170.9375 293.210938 C 176.660156 293.210938 181.3125 288.5625 181.3125 282.835938 C 181.3125 281.476562 181.097656 280.191406 180.59375 279.046875 C 180.238281 273.320312 175.515625 268.8125 169.578125 268.8125 C 163.496094 268.8125 158.558594 273.75 158.558594 279.832031 C 158.703125 282.550781 159.773438 285.128906 161.421875 287.128906 Z M 197.765625 324.90625 C 199.414062 328.484375 203.0625 330.988281 207.28125 330.988281 C 213.007812 330.988281 217.65625 326.339844 217.65625 320.613281 C 217.65625 319.253906 217.441406 317.96875 216.941406 316.824219 C 216.585938 311.097656 211.863281 306.589844 205.921875 306.589844 C 199.84375 306.589844 194.90625 311.527344 194.90625 317.609375 C 195.046875 320.328125 196.050781 322.902344 197.765625 324.90625 Z M 195.621094 317.539062 C 195.621094 323.332031 200.269531 327.984375 205.996094 327.984375 C 211.71875 327.984375 216.441406 323.332031 216.441406 317.539062 C 216.441406 311.8125 211.71875 307.164062 205.996094 307.164062 C 200.269531 307.164062 195.621094 311.8125 195.621094 317.539062 Z M 125.144531 324.90625 C 126.792969 328.484375 130.441406 330.988281 134.660156 330.988281 C 140.386719 330.988281 145.035156 326.339844 145.035156 320.613281 C 145.035156 319.253906 144.820312 317.96875 144.320312 316.824219 C 143.964844 311.097656 139.242188 306.589844 133.300781 306.589844 C 127.222656 306.589844 122.285156 311.527344 122.285156 317.609375 C 122.355469 320.328125 123.429688 322.902344 125.144531 324.90625 Z M 123 317.539062 C 123 323.332031 127.648438 327.984375 133.375 327.984375 C 139.097656 327.984375 143.820312 323.332031 143.820312 317.539062 C 143.820312 311.8125 139.097656 307.164062 133.375 307.164062 C 127.648438 307.164062 123 311.8125 123 317.539062 Z M 197.765625 287.128906 C 199.414062 290.707031 203.0625 293.210938 207.28125 293.210938 C 213.007812 293.210938 217.65625 288.5625 217.65625 282.835938 C 217.65625 281.476562 217.441406 280.191406 216.941406 279.046875 C 216.585938 273.320312 211.863281 268.8125 205.921875 268.8125 C 199.84375 268.8125 194.90625 273.75 194.90625 279.832031 C 195.046875 282.550781 196.050781 285.128906 197.765625 287.128906 Z M 195.621094 279.761719 C 195.621094 285.554688 200.269531 290.207031 205.996094 290.207031 C 211.71875 290.207031 216.441406 285.554688 216.441406 279.761719 C 216.441406 274.035156 211.71875 269.386719 205.996094 269.386719 C 200.269531 269.386719 195.621094 274.035156 195.621094 279.761719 Z M 125.144531 287.128906 C 126.792969 290.707031 130.441406 293.210938 134.660156 293.210938 C 140.386719 293.210938 145.035156 288.5625 145.035156 282.835938 C 145.035156 281.476562 144.820312 280.191406 144.320312 279.046875 C 143.964844 273.320312 139.242188 268.8125 133.300781 268.8125 C 127.222656 268.8125 122.285156 273.75 122.285156 279.832031 C 122.355469 282.550781 123.429688 285.128906 125.144531 287.128906 Z M 123 279.761719 C 123 285.554688 127.648438 290.207031 133.375 290.207031 C 139.097656 290.207031 143.820312 285.554688 143.820312 279.761719 C 143.820312 274.035156 139.097656 269.386719 133.375 269.386719 C 127.648438 269.386719 123 274.035156 123 279.761719 Z M 234.113281 324.90625 C 235.757812 328.484375 239.40625 330.988281 243.628906 330.988281 C 249.351562 330.988281 254.003906 326.339844 254.003906 320.613281 C 254.003906 319.253906 253.789062 317.96875 253.289062 316.824219 C 252.929688 311.097656 248.207031 306.589844 242.269531 306.589844 C 236.1875 306.589844 231.25 311.527344 231.25 317.609375 C 231.324219 320.328125 232.394531 322.902344 234.113281 324.90625 Z M 231.96875 317.539062 C 231.96875 323.332031 236.617188 327.984375 242.339844 327.984375 C 248.066406 327.984375 252.789062 323.332031 252.789062 317.539062 C 252.789062 311.8125 248.066406 307.164062 242.339844 307.164062 C 236.617188 307.164062 231.96875 311.8125 231.96875 317.539062 Z M 161.421875 324.90625 C 163.066406 328.484375 166.714844 330.988281 170.9375 330.988281 C 176.660156 330.988281 181.3125 326.339844 181.3125 320.613281 C 181.3125 319.253906 181.097656 317.96875 180.59375 316.824219 C 180.238281 311.097656 175.515625 306.589844 169.578125 306.589844 C 163.496094 306.589844 158.558594 311.527344 158.558594 317.609375 C 158.703125 320.328125 159.773438 322.902344 161.421875 324.90625 Z M 159.273438 317.539062 C 159.273438 323.332031 163.925781 327.984375 169.648438 327.984375 C 175.371094 327.984375 180.09375 323.332031 180.09375 317.539062 C 180.09375 311.8125 175.371094 307.164062 169.648438 307.164062 C 163.925781 307.164062 159.273438 311.8125 159.273438 317.539062 Z M 234.113281 287.128906 C 235.757812 290.707031 239.40625 293.210938 243.628906 293.210938 C 249.351562 293.210938 254.003906 288.5625 254.003906 282.835938 C 254.003906 281.476562 253.789062 280.191406 253.289062 279.046875 C 252.929688 273.320312 248.207031 268.8125 242.269531 268.8125 C 236.1875 268.8125 231.25 273.75 231.25 279.832031 C 231.324219 282.550781 232.394531 285.128906 234.113281 287.128906 Z M 231.96875 279.761719 C 231.96875 285.554688 236.617188 290.207031 242.339844 290.207031 C 248.066406 290.207031 252.789062 285.554688 252.789062 279.761719 C 252.789062 274.035156 248.066406 269.386719 242.339844 269.386719 C 236.617188 269.386719 231.96875 274.035156 231.96875 279.761719 Z M 159.273438 279.761719 C 159.273438 285.554688 163.925781 290.207031 169.648438 290.207031 C 175.371094 290.207031 180.09375 285.554688 180.09375 279.761719 C 180.09375 274.035156 175.371094 269.386719 169.648438 269.386719 C 163.925781 269.386719 159.273438 274.035156 159.273438 279.761719 Z M 162.996094 64.972656 C 164.640625 68.625 168.289062 71.128906 172.4375 71.128906 C 178.234375 71.128906 182.886719 66.40625 182.886719 60.679688 C 182.886719 59.320312 182.671875 58.105469 182.167969 56.890625 C 181.742188 51.164062 177.019531 46.65625 171.152344 46.65625 C 165.070312 46.65625 160.132812 51.59375 160.132812 57.675781 C 160.203125 60.539062 161.277344 63.042969 162.996094 64.972656 Z M 199.339844 64.972656 C 200.988281 68.625 204.636719 71.128906 208.785156 71.128906 C 214.582031 71.128906 219.230469 66.40625 219.230469 60.679688 C 219.230469 59.320312 219.015625 58.105469 218.515625 56.890625 C 218.085938 51.164062 213.363281 46.65625 207.496094 46.65625 C 201.417969 46.65625 196.480469 51.59375 196.480469 57.675781 C 196.550781 60.539062 197.625 63.042969 199.339844 64.972656 Z M 197.125 57.746094 C 197.125 63.472656 201.84375 68.195312 207.570312 68.195312 C 213.292969 68.195312 218.015625 63.472656 218.015625 57.746094 C 218.015625 52.023438 213.292969 47.300781 207.570312 47.300781 C 201.84375 47.230469 197.125 51.953125 197.125 57.746094 Z M 126.71875 64.972656 C 128.367188 68.625 132.015625 71.128906 136.164062 71.128906 C 141.960938 71.128906 146.609375 66.40625 146.609375 60.679688 C 146.609375 59.320312 146.394531 58.105469 145.894531 56.890625 C 145.464844 51.164062 140.742188 46.65625 134.875 46.65625 C 128.796875 46.65625 123.859375 51.59375 123.859375 57.675781 C 123.929688 60.539062 124.929688 63.042969 126.71875 64.972656 Z M 124.503906 57.746094 C 124.503906 63.472656 129.222656 68.195312 134.949219 68.195312 C 140.671875 68.195312 145.394531 63.472656 145.394531 57.746094 C 145.394531 52.023438 140.671875 47.300781 134.949219 47.300781 C 129.222656 47.230469 124.503906 51.953125 124.503906 57.746094 Z M 235.6875 64.972656 C 237.332031 68.625 240.980469 71.128906 245.132812 71.128906 C 250.925781 71.128906 255.578125 66.40625 255.578125 60.679688 C 255.578125 59.320312 255.363281 58.105469 254.863281 56.890625 C 254.433594 51.164062 249.710938 46.65625 243.84375 46.65625 C 237.761719 46.65625 232.824219 51.59375 232.824219 57.675781 C 232.898438 60.539062 233.898438 63.042969 235.6875 64.972656 Z M 233.46875 57.746094 C 233.46875 63.472656 238.191406 68.195312 243.914062 68.195312 C 249.640625 68.195312 254.363281 63.472656 254.363281 57.746094 C 254.363281 52.023438 249.640625 47.300781 243.914062 47.300781 C 238.121094 47.230469 233.46875 51.953125 233.46875 57.746094 Z M 160.777344 57.746094 C 160.777344 63.472656 165.5 68.195312 171.222656 68.195312 C 176.945312 68.195312 181.667969 63.472656 181.667969 57.746094 C 181.667969 52.023438 176.945312 47.300781 171.222656 47.300781 C 165.5 47.230469 160.777344 51.953125 160.777344 57.746094 Z M 160.777344 57.746094 " fill-opacity="1" fill-rule="evenodd"/><path fill="#e74c3c" d="M 261.585938 298.21875 L 299.292969 298.21875 L 299.292969 189.179688 L 261.945312 189.179688 L 261.945312 228.101562 L 223.738281 228.101562 L 223.738281 259.511719 L 261.585938 259.511719 Z M 221.019531 150.332031 L 221.019531 188.109375 L 75.707031 188.109375 L 75.707031 150.332031 Z M 122.070312 176.589844 C 123.714844 180.167969 127.363281 182.671875 131.585938 182.671875 C 137.308594 182.671875 141.960938 178.019531 141.960938 172.296875 C 141.960938 170.9375 141.746094 169.648438 141.246094 168.503906 C 140.886719 162.78125 136.09375 158.273438 130.226562 158.273438 C 124.144531 158.273438 119.207031 163.210938 119.207031 169.292969 C 119.277344 172.082031 120.28125 174.65625 122.070312 176.589844 Z M 158.34375 176.589844 C 159.988281 180.167969 163.640625 182.671875 167.859375 182.671875 C 173.582031 182.671875 178.234375 178.019531 178.234375 172.296875 C 178.234375 170.9375 178.019531 169.648438 177.519531 168.503906 C 177.160156 162.78125 172.367188 158.273438 166.5 158.273438 C 160.417969 158.273438 155.480469 163.210938 155.480469 169.292969 C 155.625 172.082031 156.628906 174.65625 158.34375 176.589844 Z M 156.199219 169.292969 C 156.199219 175.085938 160.847656 179.738281 166.570312 179.738281 C 172.296875 179.738281 177.019531 175.085938 177.019531 169.292969 C 177.019531 163.566406 172.296875 158.917969 166.570312 158.917969 C 160.847656 158.917969 156.199219 163.566406 156.199219 169.292969 Z M 85.722656 176.589844 C 87.367188 180.167969 91.019531 182.671875 95.238281 182.671875 C 100.964844 182.671875 105.613281 178.019531 105.613281 172.296875 C 105.613281 170.9375 105.398438 169.648438 104.898438 168.503906 C 104.539062 162.78125 99.746094 158.273438 93.878906 158.273438 C 87.796875 158.273438 82.859375 163.210938 82.859375 169.292969 C 83.003906 172.082031 84.007812 174.65625 85.722656 176.589844 Z M 83.578125 169.292969 C 83.578125 175.085938 88.226562 179.738281 93.953125 179.738281 C 99.675781 179.738281 104.398438 175.085938 104.398438 169.292969 C 104.398438 163.566406 99.675781 158.917969 93.953125 158.917969 C 88.226562 158.917969 83.578125 163.566406 83.578125 169.292969 Z M 194.691406 176.589844 C 196.335938 180.167969 199.984375 182.671875 204.207031 182.671875 C 209.929688 182.671875 214.582031 178.019531 214.582031 172.296875 C 214.582031 170.9375 214.367188 169.648438 213.867188 168.503906 C 213.507812 162.78125 208.714844 158.273438 202.847656 158.273438 C 196.765625 158.273438 191.828125 163.210938 191.828125 169.292969 C 191.972656 172.082031 192.972656 174.65625 194.691406 176.589844 Z M 192.542969 169.292969 C 192.542969 175.085938 197.195312 179.738281 202.917969 179.738281 C 208.640625 179.738281 213.363281 175.085938 213.363281 169.292969 C 213.363281 163.566406 208.640625 158.917969 202.917969 158.917969 C 197.195312 158.917969 192.542969 163.566406 192.542969 169.292969 Z M 119.921875 169.292969 C 119.921875 175.085938 124.574219 179.738281 130.296875 179.738281 C 136.019531 179.738281 140.742188 175.085938 140.742188 169.292969 C 140.742188 163.566406 136.019531 158.917969 130.296875 158.917969 C 124.574219 158.917969 119.921875 163.566406 119.921875 169.292969 Z M 250.070312 235.542969 C 253.644531 237.261719 256.148438 240.839844 256.148438 245.058594 C 256.148438 250.785156 251.5 255.507812 245.703125 255.507812 C 244.417969 255.507812 243.128906 255.21875 241.984375 254.789062 C 236.261719 254.363281 231.679688 249.640625 231.679688 243.773438 C 231.679688 237.761719 236.617188 232.753906 242.699219 232.753906 C 245.5625 232.824219 248.066406 233.898438 250.070312 235.542969 Z M 287.847656 199.199219 C 291.421875 200.914062 293.925781 204.492188 293.925781 208.714844 C 293.925781 214.4375 289.277344 219.160156 283.480469 219.160156 C 282.195312 219.160156 280.90625 218.875 279.761719 218.445312 C 274.035156 218.015625 269.457031 213.292969 269.457031 207.425781 C 269.457031 201.417969 274.394531 196.40625 280.476562 196.40625 C 283.339844 196.480469 285.84375 197.550781 287.847656 199.199219 Z M 280.546875 197.050781 C 286.273438 197.050781 290.992188 201.703125 290.992188 207.425781 C 290.992188 213.222656 286.273438 217.871094 280.546875 217.871094 C 274.824219 217.871094 270.101562 213.222656 270.101562 207.425781 C 270.03125 201.703125 274.753906 197.050781 280.546875 197.050781 Z M 287.847656 271.890625 C 291.421875 273.609375 293.925781 277.183594 293.925781 281.40625 C 293.925781 287.128906 289.277344 291.851562 283.480469 291.851562 C 282.195312 291.851562 280.90625 291.566406 279.761719 291.136719 C 274.035156 290.707031 269.457031 285.984375 269.457031 280.117188 C 269.457031 274.109375 274.394531 269.101562 280.476562 269.101562 C 283.339844 269.171875 285.84375 270.171875 287.847656 271.890625 Z M 280.546875 269.746094 C 286.273438 269.746094 290.992188 274.394531 290.992188 280.117188 C 290.992188 285.914062 286.273438 290.566406 280.546875 290.566406 C 274.824219 290.566406 270.101562 285.914062 270.101562 280.117188 C 270.03125 274.394531 274.753906 269.746094 280.546875 269.746094 Z M 287.847656 235.542969 C 291.421875 237.261719 293.925781 240.839844 293.925781 245.058594 C 293.925781 250.785156 289.277344 255.507812 283.480469 255.507812 C 282.195312 255.507812 280.90625 255.21875 279.761719 254.789062 C 274.035156 254.363281 269.457031 249.640625 269.457031 243.773438 C 269.457031 237.761719 274.394531 232.753906 280.476562 232.753906 C 283.339844 232.824219 285.84375 233.898438 287.847656 235.542969 Z M 280.546875 233.398438 C 286.273438 233.398438 290.992188 238.046875 290.992188 243.773438 C 290.992188 249.566406 286.273438 254.21875 280.546875 254.21875 C 274.824219 254.21875 270.101562 249.566406 270.101562 243.773438 C 270.03125 238.046875 274.753906 233.398438 280.546875 233.398438 Z M 242.769531 233.398438 C 248.496094 233.398438 253.214844 238.046875 253.214844 243.773438 C 253.214844 249.566406 248.496094 254.21875 242.769531 254.21875 C 237.046875 254.21875 232.324219 249.566406 232.324219 243.773438 C 232.253906 238.046875 236.976562 233.398438 242.769531 233.398438 Z M 242.769531 233.398438 " fill-opacity="1" fill-rule="evenodd"/><path fill="#e67e22" d="M 260.730469 189.253906 L 260.730469 227.03125 L 188.035156 227.03125 L 188.035156 189.253906 Z M 151.261719 149.113281 L 151.261719 77.636719 L 75.707031 77.636719 L 75.707031 149.113281 Z M 102.035156 124 C 105.613281 125.71875 108.117188 129.296875 108.117188 133.515625 C 108.117188 139.242188 103.46875 143.964844 97.671875 143.964844 C 96.382812 143.964844 95.097656 143.675781 93.953125 143.246094 C 88.226562 142.820312 83.648438 138.097656 83.648438 132.230469 C 83.648438 126.21875 88.585938 121.210938 94.667969 121.210938 C 97.527344 121.210938 100.105469 122.285156 102.035156 124 Z M 139.8125 87.65625 C 143.390625 89.371094 145.894531 92.949219 145.894531 97.171875 C 145.894531 102.894531 141.246094 107.617188 135.449219 107.617188 C 134.160156 107.617188 132.875 107.332031 131.726562 106.902344 C 126.003906 106.472656 121.425781 101.75 121.425781 95.882812 C 121.425781 89.871094 126.363281 84.863281 132.445312 84.863281 C 135.304688 84.9375 137.882812 85.9375 139.8125 87.65625 Z M 132.515625 85.507812 C 138.238281 85.507812 142.960938 90.160156 142.960938 95.882812 C 142.960938 101.679688 138.238281 106.328125 132.515625 106.328125 C 126.792969 106.328125 122.070312 101.679688 122.070312 95.882812 C 122.070312 90.160156 126.71875 85.507812 132.515625 85.507812 Z M 102.035156 87.65625 C 105.613281 89.371094 108.117188 92.949219 108.117188 97.171875 C 108.117188 102.894531 103.46875 107.617188 97.671875 107.617188 C 96.382812 107.617188 95.097656 107.332031 93.953125 106.902344 C 88.226562 106.472656 83.648438 101.75 83.648438 95.882812 C 83.648438 89.871094 88.585938 84.863281 94.667969 84.863281 C 97.527344 84.9375 100.105469 85.9375 102.035156 87.65625 Z M 94.738281 85.507812 C 100.460938 85.507812 105.183594 90.160156 105.183594 95.882812 C 105.183594 101.679688 100.460938 106.328125 94.738281 106.328125 C 89.015625 106.328125 84.292969 101.679688 84.292969 95.882812 C 84.292969 90.160156 88.941406 85.507812 94.738281 85.507812 Z M 139.8125 124 C 143.390625 125.71875 145.894531 129.296875 145.894531 133.515625 C 145.894531 139.242188 141.246094 143.964844 135.449219 143.964844 C 134.160156 143.964844 132.875 143.675781 131.726562 143.246094 C 126.003906 142.820312 121.425781 138.097656 121.425781 132.230469 C 121.425781 126.21875 126.363281 121.210938 132.445312 121.210938 C 135.304688 121.210938 137.882812 122.285156 139.8125 124 Z M 132.515625 121.855469 C 138.238281 121.855469 142.960938 126.503906 142.960938 132.230469 C 142.960938 138.023438 138.238281 142.675781 132.515625 142.675781 C 126.792969 142.675781 122.070312 138.023438 122.070312 132.230469 C 122.070312 126.503906 126.71875 121.855469 132.515625 121.855469 Z M 94.738281 121.855469 C 100.460938 121.855469 105.183594 126.503906 105.183594 132.230469 C 105.183594 138.023438 100.460938 142.675781 94.738281 142.675781 C 89.015625 142.675781 84.292969 138.023438 84.292969 132.230469 C 84.292969 126.503906 88.941406 121.855469 94.738281 121.855469 Z M 234.472656 215.582031 C 236.117188 219.160156 239.765625 221.664062 243.914062 221.664062 C 249.710938 221.664062 254.363281 217.011719 254.363281 211.289062 C 254.363281 209.929688 254.148438 208.640625 253.644531 207.496094 C 253.214844 201.773438 248.496094 197.265625 242.628906 197.265625 C 236.546875 197.265625 231.609375 202.203125 231.609375 208.285156 C 231.679688 211.074219 232.753906 213.578125 234.472656 215.582031 Z M 198.195312 215.582031 C 199.84375 219.160156 203.492188 221.664062 207.640625 221.664062 C 213.4375 221.664062 218.085938 217.011719 218.085938 211.289062 C 218.085938 209.929688 217.871094 208.640625 217.371094 207.496094 C 216.941406 201.773438 212.21875 197.265625 206.351562 197.265625 C 200.269531 197.265625 195.335938 202.203125 195.335938 208.285156 C 195.40625 211.074219 196.40625 213.578125 198.195312 215.582031 Z M 195.976562 208.214844 C 195.976562 214.007812 200.699219 218.660156 206.425781 218.660156 C 212.148438 218.660156 216.796875 214.007812 216.796875 208.214844 C 216.796875 202.488281 212.148438 197.839844 206.425781 197.839844 C 200.699219 197.839844 195.976562 202.488281 195.976562 208.214844 Z M 232.253906 208.214844 C 232.253906 214.007812 236.976562 218.660156 242.699219 218.660156 C 248.421875 218.660156 253.074219 214.007812 253.074219 208.214844 C 253.074219 202.488281 248.421875 197.839844 242.699219 197.839844 C 236.976562 197.839844 232.253906 202.488281 232.253906 208.214844 Z M 232.253906 208.214844 " fill-opacity="1" fill-rule="evenodd"/></svg>